v -0.0 0.0023 0.0
v -0.0328 0.067 -0.0045
v 0.0279 0.0875 -0.2051
v -0.0111 0.1333 -0.164
v 0.0328 0.067 0.0045
v 0.0545 0.1333 -0.1551
v -0.0279 0.0875 0.2051
v 0.0111 0.1333 0.164
v -0.0328 0.067 -0.0045
v -0.0545 0.1333 0.1551
v -0.0634 0.2935 0.2212
v -0.0394 0.2935 0.2901
v 0.0022 0.2935 0.2301
v 0.0111 0.1333 0.164
v -0.0279 0.4994 0.2051
v 0.0111 0.4536 0.164
v -0.0634 0.2935 0.2212
v -0.0545 0.4536 0.1551
v -0.0328 0.52 -0.0045
v -0.0 0.5847 0.0
v 0.0328 0.52 0.0045
v 0.0111 0.4536 0.164
v 0.0279 0.4994 -0.2051
v 0.0545 0.4536 -0.1551
v -0.0328 0.52 -0.0045
v -0.0111 0.4536 -0.164
v -0.0022 0.2935 -0.2301
v 0.0394 0.2935 -0.2901
v 0.0634 0.2935 -0.2212
v 0.0545 0.4536 -0.1551
v 0.0279 0.0875 -0.2051
v 0.0545 0.1333 -0.1551
v -0.0022 0.2935 -0.2301
v -0.0111 0.1333 -0.164


vn -0.8423 0.4476 0.3003
vn 0.8919 0.4476 0.0648
vn 0.8423 0.4476 -0.3003
vn -0.8919 0.4476 -0.0648
vn -0.9279 0.1855 -0.3235
vn 0.808 0.1855 -0.5593
vn 0.808 -0.1856 -0.5592
vn -0.9279 -0.1856 -0.3235
vn -0.8919 -0.4475 -0.065
vn 0.8423 -0.4475 -0.3005
vn 0.8919 -0.4475 0.065
vn -0.8423 -0.4475 0.3005
vn -0.808 -0.1856 0.5592
vn 0.9279 -0.1856 0.3235
vn 0.9279 0.1855 0.3235
vn -0.808 0.1855 0.5593
vn 0.0 0.0 0.0

vt 0 0

g Group_001
f 1//1 2//1 4//1 3//1
f 1//2 3//2 6//2 5//2
f 1//3 5//3 8//3 7//3
f 1//4 7//4 10//4 9//4
f 10//5 7//5 12//5 11//5
f 12//6 7//6 14//6 13//6
f 12//7 13//7 16//7 15//7
f 12//8 15//8 18//8 17//8
f 18//9 15//9 20//9 19//9
f 20//10 15//10 22//10 21//10
f 20//11 21//11 24//11 23//11
f 20//12 23//12 26//12 25//12
f 26//13 23//13 28//13 27//13
f 28//14 23//14 30//14 29//14
f 28//15 29//15 32//15 31//15
f 28//16 31//16 34//16 33//16

#Vertex Count: 34