v -0.164 3.9442 0.6174
v -0.032 4.0044 1.0129
v -0.1388 3.9291 0.6195
v -0.0042 3.977 1.0167
v 0.1375 4.0213 1.4144
v 0.1134 4.0644 1.4084
v 0.2456 4.0607 1.8128
v 0.2295 4.1215 1.8043
v 0.2869 4.095 2.2119
v 0.2813 4.1741 2.2008
v 0.2591 4.1276 2.6113
v 0.2641 4.2266 2.5974
v 0.1675 4.163 3.0102
v 0.1806 4.285 2.9931
v 0.0259 4.2037 3.4084
v 0.0429 4.3525 3.3875
v -0.1177 4.2454 3.8065
v -0.1005 4.4225 3.7816
v -0.2065 4.2822 4.2053
v -0.1917 4.486 4.1766
v -0.2018 4.3103 4.6053
v -0.1911 4.5365 4.5735
v -0.1368 4.3355 5.0056
v -0.1303 4.579 4.9714
v -0.0 4.366 5.4053
v -0.0 4.6212 5.3694
v -0.1443 4.1015 5.0385
v -0.0 4.115 5.4406
v -0.1508 3.8765 5.0701
v -0.0 3.8681 5.4753
v -0.2145 4.0987 4.635
v -0.2253 3.9014 4.6627
v -0.1368 4.3355 5.0056
v -0.2018 4.3103 4.6053
v -0.2065 4.2822 4.2053
v -0.2238 4.0954 4.2315
v -0.2386 3.9259 4.2553
v -0.2253 3.9014 4.6627
v -0.1379 4.083 3.8293
v -0.1551 3.9371 3.8498
v -0.2065 4.2822 4.2053
v -0.1177 4.2454 3.8065
v 0.0259 4.2037 3.4084
v 0.0058 4.0646 3.428
v -0.0112 3.9384 3.4457
v -0.1551 3.9371 3.8498
v 0.1521 4.0457 3.0267
v 0.139 3.9376 3.0419
v 0.0259 4.2037 3.4084
v 0.1675 4.163 3.0102
v 0.2591 4.1276 2.6113
v 0.2533 4.0305 2.6249
v 0.2484 3.9403 2.6376
v 0.139 3.9376 3.0419
v 0.2935 4.0167 2.2229
v 0.2992 3.9442 2.2331
v 0.2591 4.1276 2.6113
v 0.2869 4.095 2.2119
v 0.2456 4.0607 1.8128
v 0.2645 4.0006 1.8213
v 0.2806 3.9453 1.829
v 0.2992 3.9442 2.2331
v 0.1659 3.9788 1.4204
v 0.1901 3.9398 1.4259
v 0.2456 4.0607 1.8128
v 0.1375 4.0213 1.4144
v -0.0042 3.977 1.0167
v 0.0285 3.9503 1.0205
v 0.0563 3.9254 1.024
v 0.1901 3.9398 1.4259
v -0.1091 3.9143 0.6216
v -0.0839 3.9002 0.6236
v -0.0042 3.977 1.0167
v -0.1388 3.9291 0.6195


vn 0.6161 -0.7258 0.3062
vn 0.7769 -0.5233 0.35
vn 0.9048 -0.3092 0.2929
vn 0.9824 -0.1342 0.1296
vn 0.9984 -0.0111 -0.0553
vn 0.9742 0.0489 -0.2204
vn 0.9392 0.0569 -0.3387
vn 0.9368 0.0496 -0.3464
vn 0.9727 0.0498 -0.2268
vn 0.9982 0.0593 0.0008
vn 0.9869 0.0573 0.1507
vn 0.9483 0.0563 0.3124
vn 0.943 0.0606 0.3273
vn 0.9376 0.061 0.3423
vn 0.9821 0.0651 0.177
vn 0.9843 0.0675 0.1632
vn 0.9969 0.0771 0.0144
vn 0.9968 0.0737 0.0297
vn 0.9763 0.0703 -0.2049
vn 0.9734 0.0741 -0.2168
vn 0.9364 0.077 -0.3423
vn 0.9389 0.0707 -0.3368
vn 0.9354 0.0716 -0.3462
vn 0.9358 0.0813 -0.343
vn 0.9694 0.0625 -0.2374
vn 0.966 0.0521 -0.2532
vn 0.9935 -0.0206 -0.1118
vn 0.9964 -0.0163 -0.0836
vn 0.9812 -0.1672 0.0967
vn 0.9853 -0.1595 0.0612
vn 0.9069 -0.356 0.2254
vn 0.8906 -0.374 0.2589
vn 0.7337 -0.6037 0.3118
vn 0.7621 -0.5795 0.2888
vn 0.5893 -0.7638 0.2633
vn 0.5506 -0.7894 0.2715
vn 0.0 0.0 0.0

vt 0 0

g Group_001
f 1//1 2//1 4//1 3//1
f 4//2 2//2 6//2 5//2
f 5//3 6//3 8//3 7//3
f 7//4 8//4 10//4 9//4
f 9//5 10//5 12//5 11//5
f 11//6 12//6 14//6 13//6
f 13//7 14//7 16//7 15//7
f 15//8 16//8 18//8 17//8
f 17//9 18//9 20//9 19//9
f 19//10 20//10 22//10 21//10
f 21//11 22//11 24//11 23//11
f 23//12 24//12 26//12 25//12
f 23//13 25//13 28//13 27//13
f 27//14 28//14 30//14 29//14
f 27//15 29//15 32//15 31//15
f 27//16 31//16 34//16 33//16
f 34//17 31//17 36//17 35//17
f 36//18 31//18 38//18 37//18
f 36//19 37//19 40//19 39//19
f 36//20 39//20 42//20 41//20
f 42//21 39//21 44//21 43//21
f 44//22 39//22 46//22 45//22
f 44//23 45//23 48//23 47//23
f 44//24 47//24 50//24 49//24
f 50//25 47//25 52//25 51//25
f 52//26 47//26 54//26 53//26
f 52//27 53//27 56//27 55//27
f 52//28 55//28 58//28 57//28
f 58//29 55//29 60//29 59//29
f 60//30 55//30 62//30 61//30
f 60//31 61//31 64//31 63//31
f 60//32 63//32 66//32 65//32
f 66//33 63//33 68//33 67//33
f 68//34 63//34 70//34 69//34
f 68//35 69//35 72//35 71//35
f 68//36 71//36 74//36 73//36

#Vertex Count: 74