v -0.1349 3.9449 0.6173
v 0.0077 4.0059 1.0127
v -0.1143 3.9298 0.6194
v 0.0305 3.9786 1.0165
v 0.1736 4.0236 1.4141
v 0.1538 4.0668 1.408
v 0.2735 4.0634 1.8124
v 0.2603 4.1242 1.8039
v 0.2974 4.0974 2.2116
v 0.2928 4.1765 2.2005
v 0.2485 4.1294 2.611
v 0.2525 4.2283 2.5971
v 0.1387 4.1644 3.01
v 0.1494 4.2863 2.9929
v -0.0128 4.2054 3.4082
v 0.0011 4.3542 3.3873
v -0.1582 4.2478 3.8062
v -0.1441 4.4249 3.7813
v -0.2425 4.2849 4.2049
v -0.2304 4.4888 4.1762
v -0.2287 4.3126 4.6049
v -0.2199 4.5389 4.5731
v -0.153 4.3371 5.0054
v -0.1477 4.5806 4.9712
v -0.0 4.3667 5.4052
v -0.0 4.6219 5.3693
v -0.1592 4.103 5.0383
v -0.0 4.1157 5.4405
v -0.1645 3.878 5.0699
v -0.0 3.8688 5.4752
v -0.2392 4.1011 4.6347
v -0.248 3.9038 4.6624
v -0.153 4.3371 5.0054
v -0.2287 4.3126 4.6049
v -0.2425 4.2849 4.2049
v -0.2567 4.0981 4.2311
v -0.2688 3.9286 4.255
v -0.248 3.9038 4.6624
v -0.1748 4.0854 3.829
v -0.1889 3.9394 3.8495
v -0.2425 4.2849 4.2049
v -0.1582 4.2478 3.8062
v -0.0128 4.2054 3.4082
v -0.0292 4.0663 3.4277
v -0.0432 3.9402 3.4455
v -0.1889 3.9394 3.8495
v 0.126 4.0471 3.0265
v 0.1153 3.939 3.0417
v -0.0128 4.2054 3.4082
v 0.1387 4.1644 3.01
v 0.2485 4.1294 2.611
v 0.2437 4.0322 2.6247
v 0.2397 3.942 2.6374
v 0.1153 3.939 3.0417
v 0.3028 4.0191 2.2226
v 0.3074 3.9466 2.2328
v 0.2485 4.1294 2.611
v 0.2974 4.0974 2.2116
v 0.2735 4.0634 1.8124
v 0.289 4.0034 1.8209
v 0.3022 3.9481 1.8286
v 0.3074 3.9466 2.2328
v 0.1969 3.9812 1.4201
v 0.2167 3.9422 1.4255
v 0.2735 4.0634 1.8124
v 0.1736 4.0236 1.4141
v 0.0305 3.9786 1.0165
v 0.0573 3.9518 1.0203
v 0.0802 3.927 1.0237
v 0.2167 3.9422 1.4255
v -0.0899 3.915 0.6215
v -0.0693 3.9009 0.6235
v 0.0305 3.9786 1.0165
v -0.1143 3.9298 0.6194


vn 0.681 -0.6501 0.337
vn 0.8204 -0.4453 0.3587
vn 0.9275 -0.2561 0.2724
vn 0.99 -0.1144 0.0826
vn 0.9938 -0.0187 -0.1094
vn 0.9648 0.0275 -0.2616
vn 0.9332 0.0346 -0.3577
vn 0.9369 0.0315 -0.3483
vn 0.976 0.0369 -0.2145
vn 0.9983 0.0521 0.0254
vn 0.9826 0.0544 0.1775
vn 0.9358 0.0588 0.3475
vn 0.9312 0.0624 0.3592
vn 0.9265 0.0625 0.3711
vn 0.9781 0.0606 0.199
vn 0.9802 0.0631 0.1877
vn 0.9971 0.0669 0.0363
vn 0.9968 0.0637 0.0488
vn 0.9791 0.0537 -0.1963
vn 0.9768 0.0572 -0.2063
vn 0.9369 0.0541 -0.3453
vn 0.9389 0.049 -0.3407
vn 0.9303 0.0469 -0.3637
vn 0.9308 0.0549 -0.3613
vn 0.9605 0.0396 -0.2753
vn 0.9572 0.0304 -0.2879
vn 0.9876 -0.0255 -0.155
vn 0.991 -0.022 -0.1323
vn 0.9884 -0.1416 0.0553
vn 0.9906 -0.1344 0.0257
vn 0.9306 -0.2957 0.2159
vn 0.9177 -0.313 0.2448
vn 0.7867 -0.5232 0.3277
vn 0.81 -0.4998 0.3068
vn 0.6566 -0.6928 0.2983
vn 0.6214 -0.7215 0.3056
vn 0.0 0.0 0.0

vt 0 0

g Group_001
f 1//1 2//1 4//1 3//1
f 4//2 2//2 6//2 5//2
f 5//3 6//3 8//3 7//3
f 7//4 8//4 10//4 9//4
f 9//5 10//5 12//5 11//5
f 11//6 12//6 14//6 13//6
f 13//7 14//7 16//7 15//7
f 15//8 16//8 18//8 17//8
f 17//9 18//9 20//9 19//9
f 19//10 20//10 22//10 21//10
f 21//11 22//11 24//11 23//11
f 23//12 24//12 26//12 25//12
f 23//13 25//13 28//13 27//13
f 27//14 28//14 30//14 29//14
f 27//15 29//15 32//15 31//15
f 27//16 31//16 34//16 33//16
f 34//17 31//17 36//17 35//17
f 36//18 31//18 38//18 37//18
f 36//19 37//19 40//19 39//19
f 36//20 39//20 42//20 41//20
f 42//21 39//21 44//21 43//21
f 44//22 39//22 46//22 45//22
f 44//23 45//23 48//23 47//23
f 44//24 47//24 50//24 49//24
f 50//25 47//25 52//25 51//25
f 52//26 47//26 54//26 53//26
f 52//27 53//27 56//27 55//27
f 52//28 55//28 58//28 57//28
f 58//29 55//29 60//29 59//29
f 60//30 55//30 62//30 61//30
f 60//31 61//31 64//31 63//31
f 60//32 63//32 66//32 65//32
f 66//33 63//33 68//33 67//33
f 68//34 63//34 70//34 69//34
f 68//35 69//35 72//35 71//35
f 68//36 71//36 74//36 73//36

#Vertex Count: 74