v -0.0509 3.9469 0.617
v 0.1226 4.0103 1.012
v -0.0433 3.9317 0.6191
v 0.1309 3.983 1.0159
v 0.278 4.0305 1.4131
v 0.2708 4.0737 1.4071
v 0.354 4.0714 1.8113
v 0.3492 4.1322 1.8028
v 0.3276 4.1043 2.2106
v 0.326 4.1834 2.1995
v 0.2176 4.1344 2.6103
v 0.2191 4.2333 2.5964
v 0.0553 4.1684 3.0095
v 0.0592 4.2903 2.9923
v -0.1248 4.2104 3.4075
v -0.1197 4.3592 3.3866
v -0.2755 4.2547 3.8052
v -0.2704 4.4319 3.7803
v -0.3466 4.2929 4.2038
v -0.3422 4.4967 4.1751
v -0.3066 4.3195 4.604
v -0.3034 4.5458 4.5722
v -0.2 4.3415 5.0048
v -0.1981 4.585 4.9706
v -0.0 4.3687 5.4049
v -0.0 4.6239 5.369
v -0.2023 4.1074 5.0377
v -0.0 4.1177 5.4402
v -0.2042 3.8824 5.0693
v -0.0 3.8708 5.4749
v -0.3104 4.1079 4.6337
v -0.3137 3.9106 4.6614
v -0.2 4.3415 5.0048
v -0.3066 4.3195 4.604
v -0.3466 4.2929 4.2038
v -0.3518 4.1061 4.23
v -0.3562 3.9366 4.2538
v -0.3137 3.9106 4.6614
v -0.2816 4.0923 3.828
v -0.2867 3.9464 3.8485
v -0.3466 4.2929 4.2038
v -0.2755 4.2547 3.8052
v -0.1248 4.2104 3.4075
v -0.1308 4.0713 3.427
v -0.1359 3.9452 3.4448
v -0.2867 3.9464 3.8485
v 0.0507 4.0511 3.026
v 0.0468 3.943 3.0411
v -0.1248 4.2104 3.4075
v 0.0553 4.1684 3.0095
v 0.2176 4.1344 2.6103
v 0.2159 4.0372 2.624
v 0.2144 3.947 2.6367
v 0.0468 3.943 3.0411
v 0.3296 4.026 2.2216
v 0.3313 3.9535 2.2318
v 0.2176 4.1344 2.6103
v 0.3276 4.1043 2.2106
v 0.354 4.0714 1.8113
v 0.3597 4.0113 1.8198
v 0.3645 3.956 1.8275
v 0.3313 3.9535 2.2318
v 0.2865 3.9881 1.4191
v 0.2938 3.949 1.4246
v 0.354 4.0714 1.8113
v 0.278 4.0305 1.4131
v 0.1309 3.983 1.0159
v 0.1408 3.9562 1.0196
v 0.1491 3.9314 1.0231
v 0.2938 3.949 1.4246
v -0.0345 3.917 0.6212
v -0.0269 3.9029 0.6232
v 0.1309 3.983 1.0159
v -0.0433 3.9317 0.6191


vn 0.868 -0.2655 0.4196
vn 0.9192 -0.151 0.3637
vn 0.976 -0.0847 0.2004
vn 0.997 -0.0535 -0.0565
vn 0.9651 -0.0369 -0.2591
vn 0.9276 -0.0298 -0.3725
vn 0.9119 -0.0273 -0.4094
vn 0.9353 -0.0204 -0.3532
vn 0.9842 -0.0004 -0.1772
vn 0.995 0.031 0.0954
vn 0.9664 0.046 0.2527
vn 0.8952 0.0654 0.4409
vn 0.8932 0.0667 0.4446
vn 0.8913 0.0666 0.4485
vn 0.9643 0.0484 0.2602
vn 0.9654 0.0492 0.2562
vn 0.9944 0.0364 0.0994
vn 0.994 0.0354 0.1038
vn 0.9853 0.0057 -0.1705
vn 0.9847 0.0074 -0.1743
vn 0.9358 -0.0119 -0.3523
vn 0.9364 -0.0142 -0.3506
vn 0.911 -0.0228 -0.4117
vn 0.9114 -0.02 -0.4109
vn 0.9259 -0.0259 -0.3769
vn 0.9241 -0.0283 -0.381
vn 0.9608 -0.0398 -0.2742
vn 0.963 -0.0392 -0.2666
vn 0.9957 -0.0647 -0.0664
vn 0.9951 -0.0614 -0.0772
vn 0.9787 -0.1004 0.179
vn 0.9756 -0.1082 0.1909
vn 0.9145 -0.1934 0.3554
vn 0.9218 -0.1764 0.3451
vn 0.8647 -0.2961 0.4056
vn 0.8512 -0.3261 0.4112
vn 0.0 0.0 0.0

vt 0 0

g Group_001
f 1//1 2//1 4//1 3//1
f 4//2 2//2 6//2 5//2
f 5//3 6//3 8//3 7//3
f 7//4 8//4 10//4 9//4
f 9//5 10//5 12//5 11//5
f 11//6 12//6 14//6 13//6
f 13//7 14//7 16//7 15//7
f 15//8 16//8 18//8 17//8
f 17//9 18//9 20//9 19//9
f 19//10 20//10 22//10 21//10
f 21//11 22//11 24//11 23//11
f 23//12 24//12 26//12 25//12
f 23//13 25//13 28//13 27//13
f 27//14 28//14 30//14 29//14
f 27//15 29//15 32//15 31//15
f 27//16 31//16 34//16 33//16
f 34//17 31//17 36//17 35//17
f 36//18 31//18 38//18 37//18
f 36//19 37//19 40//19 39//19
f 36//20 39//20 42//20 41//20
f 42//21 39//21 44//21 43//21
f 44//22 39//22 46//22 45//22
f 44//23 45//23 48//23 47//23
f 44//24 47//24 50//24 49//24
f 50//25 47//25 52//25 51//25
f 52//26 47//26 54//26 53//26
f 52//27 53//27 56//27 55//27
f 52//28 55//28 58//28 57//28
f 58//29 55//29 60//29 59//29
f 60//30 55//30 62//30 61//30
f 60//31 61//31 64//31 63//31
f 60//32 63//32 66//32 65//32
f 66//33 63//33 68//33 67//33
f 68//34 63//34 70//34 69//34
f 68//35 69//35 72//35 71//35
f 68//36 71//36 74//36 73//36

#Vertex Count: 74