v -0.0025 3.9481 0.6168
v 0.1888 4.0129 1.0117
v -0.0025 3.9329 0.619
v 0.1888 3.9855 1.0155
v 0.3381 4.0344 1.4126
v 0.3381 4.0776 1.4065
v 0.4004 4.0759 1.8107
v 0.4004 4.1368 1.8021
v 0.345 4.1083 2.2101
v 0.345 4.1874 2.1989
v 0.1999 4.1373 2.6099
v 0.1999 4.2362 2.596
v 0.0073 4.1707 3.0092
v 0.0073 4.2926 2.992
v -0.1892 4.2133 3.4071
v -0.1892 4.3621 3.3862
v -0.343 4.2587 3.8046
v -0.343 4.4358 3.7797
v -0.4065 4.2974 4.2031
v -0.4065 4.5013 4.1745
v -0.3514 4.3234 4.6034
v -0.3514 4.5497 4.5716
v -0.2271 4.344 5.0044
v -0.2271 4.5875 4.9702
v -0.0 4.3698 5.4047
v -0.0 4.625 5.3689
v -0.2271 4.11 5.0373
v -0.0 4.1188 5.44
v -0.2271 3.885 5.069
v -0.0 3.8719 5.4747
v -0.3514 4.1118 4.6331
v -0.3514 3.9146 4.6609
v -0.2271 4.344 5.0044
v -0.3514 4.3234 4.6034
v -0.4065 4.2974 4.2031
v -0.4065 4.1106 4.2294
v -0.4065 3.9412 4.2532
v -0.3514 3.9146 4.6609
v -0.3431 4.0963 3.8275
v -0.3431 3.9503 3.848
v -0.4065 4.2974 4.2031
v -0.343 4.2587 3.8046
v -0.1892 4.2133 3.4071
v -0.1892 4.0742 3.4266
v -0.1892 3.9481 3.4444
v -0.3431 3.9503 3.848
v 0.0073 4.0533 3.0256
v 0.0073 3.9453 3.0408
v -0.1892 4.2133 3.4071
v 0.0073 4.1707 3.0092
v 0.1999 4.1373 2.6099
v 0.1999 4.0401 2.6236
v 0.1999 3.9499 2.6362
v 0.0073 3.9453 3.0408
v 0.345 4.03 2.2211
v 0.345 3.9575 2.2312
v 0.1999 4.1373 2.6099
v 0.345 4.1083 2.2101
v 0.4004 4.0759 1.8107
v 0.4004 4.0159 1.8191
v 0.4004 3.9606 1.8269
v 0.345 3.9575 2.2312
v 0.3381 3.992 1.4185
v 0.3381 3.953 1.424
v 0.4004 4.0759 1.8107
v 0.3381 4.0344 1.4126
v 0.1888 3.9855 1.0155
v 0.1888 3.9588 1.0193
v 0.1888 3.9339 1.0228
v 0.3381 3.953 1.424
v -0.0025 3.9181 0.6211
v -0.0025 3.9041 0.623
v 0.1888 3.9855 1.0155
v -0.0025 3.9329 0.619


vn 0.9021 0.0602 0.4272
vn 0.9369 0.0486 0.3463
vn 0.9881 0.0215 0.1524
vn 0.9905 -0.0192 -0.1358
vn 0.9401 -0.0476 -0.3377
vn 0.901 -0.0605 -0.4296
vn 0.8975 -0.0615 -0.4366
vn 0.9334 -0.05 -0.3554
vn 0.9876 -0.0218 -0.1552
vn 0.9906 0.019 0.1351
vn 0.9549 0.0413 0.2939
vn 0.8696 0.0686 0.4889
vn 0.8696 0.0688 0.4889
vn 0.8696 0.0688 0.4889
vn 0.955 0.0414 0.2939
vn 0.955 0.0413 0.2939
vn 0.9906 0.019 0.1351
vn 0.9906 0.019 0.1351
vn 0.9877 -0.0218 -0.155
vn 0.9877 -0.0216 -0.1552
vn 0.9334 -0.0497 -0.3555
vn 0.9333 -0.05 -0.3556
vn 0.8976 -0.0615 -0.4366
vn 0.8975 -0.0611 -0.4367
vn 0.901 -0.0603 -0.4296
vn 0.901 -0.0603 -0.4296
vn 0.9401 -0.0471 -0.3377
vn 0.94 -0.0475 -0.3377
vn 0.9905 -0.0191 -0.1358
vn 0.9905 -0.019 -0.1359
vn 0.9881 0.0215 0.1524
vn 0.9881 0.0213 0.1524
vn 0.9369 0.0486 0.3463
vn 0.9368 0.0488 0.3463
vn 0.9022 0.0593 0.4273
vn 0.9021 0.0607 0.4272
vn 0.0 0.0 0.0

vt 0 0

g Group_001
f 1//1 2//1 4//1 3//1
f 4//2 2//2 6//2 5//2
f 5//3 6//3 8//3 7//3
f 7//4 8//4 10//4 9//4
f 9//5 10//5 12//5 11//5
f 11//6 12//6 14//6 13//6
f 13//7 14//7 16//7 15//7
f 15//8 16//8 18//8 17//8
f 17//9 18//9 20//9 19//9
f 19//10 20//10 22//10 21//10
f 21//11 22//11 24//11 23//11
f 23//12 24//12 26//12 25//12
f 23//13 25//13 28//13 27//13
f 27//14 28//14 30//14 29//14
f 27//15 29//15 32//15 31//15
f 27//16 31//16 34//16 33//16
f 34//17 31//17 36//17 35//17
f 36//18 31//18 38//18 37//18
f 36//19 37//19 40//19 39//19
f 36//20 39//20 42//20 41//20
f 42//21 39//21 44//21 43//21
f 44//22 39//22 46//22 45//22
f 44//23 45//23 48//23 47//23
f 44//24 47//24 50//24 49//24
f 50//25 47//25 52//25 51//25
f 52//26 47//26 54//26 53//26
f 52//27 53//27 56//27 55//27
f 52//28 55//28 58//28 57//28
f 58//29 55//29 60//29 59//29
f 60//30 55//30 62//30 61//30
f 60//31 61//31 64//31 63//31
f 60//32 63//32 66//32 65//32
f 66//33 63//33 68//33 67//33
f 68//34 63//34 70//34 69//34
f 68//35 69//35 72//35 71//35
f 68//36 71//36 74//36 73//36

#Vertex Count: 74