v 0.0448 3.9461 0.6171
v 0.2038 4.0102 1.012
v 0.0413 3.9309 0.6193
v 0.1991 3.9829 1.0159
v 0.311 4.0313 1.413
v 0.3156 4.0744 1.407
v 0.3434 4.0728 1.8111
v 0.3467 4.1336 1.8026
v 0.2749 4.1057 2.2104
v 0.276 4.1848 2.1993
v 0.1343 4.1353 2.6102
v 0.1329 4.2343 2.5963
v -0.0373 4.1688 3.0094
v -0.0409 4.2907 2.9923
v -0.2001 4.2105 3.4075
v -0.2049 4.3592 3.3866
v -0.3189 4.2546 3.8052
v -0.324 4.4317 3.7803
v -0.3602 4.2927 4.2038
v -0.3647 4.4965 4.1751
v -0.3052 4.3193 4.604
v -0.3086 4.5456 4.5722
v -0.1956 4.3414 5.0048
v -0.1976 4.5849 4.9706
v -0.0 4.3686 5.4049
v -0.0 4.6238 5.369
v -0.1932 4.1073 5.0377
v -0.0 4.1176 5.4402
v -0.1912 3.8823 5.0693
v -0.0 3.8707 5.4749
v -0.3013 4.1077 4.6337
v -0.298 3.9105 4.6614
v -0.1956 4.3414 5.0048
v -0.3052 4.3193 4.604
v -0.3602 4.2927 4.2038
v -0.355 4.1059 4.23
v -0.3505 3.9364 4.2539
v -0.298 3.9105 4.6614
v -0.313 4.0922 3.828
v -0.308 3.9462 3.8486
v -0.3602 4.2927 4.2038
v -0.3189 4.2546 3.8052
v -0.2001 4.2105 3.4075
v -0.1944 4.0714 3.427
v -0.1896 3.9452 3.4448
v -0.308 3.9462 3.8486
v -0.0331 4.0514 3.0259
v -0.0295 3.9434 3.0411
v -0.2001 4.2105 3.4075
v -0.0373 4.1688 3.0094
v 0.1343 4.1353 2.6102
v 0.136 4.0382 2.6238
v 0.1374 3.9479 2.6365
v -0.0295 3.9434 3.0411
v 0.2736 4.0274 2.2214
v 0.2725 3.9549 2.2316
v 0.1343 4.1353 2.6102
v 0.2749 4.1057 2.2104
v 0.3434 4.0728 1.8111
v 0.3395 4.0127 1.8196
v 0.3361 3.9574 1.8273
v 0.2725 3.9549 2.2316
v 0.3057 3.9888 1.419
v 0.3012 3.9498 1.4245
v 0.3434 4.0728 1.8111
v 0.311 4.0313 1.413
v 0.1991 3.9829 1.0159
v 0.1937 3.9561 1.0197
v 0.189 3.9313 1.0231
v 0.3012 3.9498 1.4245
v 0.0371 3.9161 0.6213
v 0.0335 3.9021 0.6233
v 0.1991 3.9829 1.0159
v 0.0413 3.9309 0.6193


vn 0.9156 0.2245 0.3335
vn 0.9556 0.161 0.247
vn 0.994 0.0852 0.0687
vn 0.9849 0.0067 -0.1729
vn 0.9425 -0.048 -0.3308
vn 0.9177 -0.0755 -0.3901
vn 0.9254 -0.0807 -0.3704
vn 0.9582 -0.0682 -0.278
vn 0.9945 -0.0388 -0.0977
vn 0.9904 0.0012 0.1379
vn 0.9641 0.026 0.2641
vn 0.8975 0.0579 0.4372
vn 0.8996 0.0564 0.4331
vn 0.9016 0.0564 0.4289
vn 0.9662 0.0239 0.2566
vn 0.9652 0.0229 0.2605
vn 0.991 -0.0038 0.1341
vn 0.9915 -0.0028 0.1297
vn 0.9936 -0.0446 -0.1038
vn 0.9939 -0.0457 -0.1005
vn 0.9575 -0.0759 -0.2784
vn 0.9572 -0.0739 -0.2799
vn 0.9261 -0.085 -0.3675
vn 0.9255 -0.0874 -0.3686
vn 0.919 -0.0795 -0.3861
vn 0.9207 -0.077 -0.3826
vn 0.9464 -0.0467 -0.3195
vn 0.9445 -0.0478 -0.3251
vn 0.986 0.0136 -0.1662
vn 0.9872 0.0125 -0.1588
vn 0.9922 0.0945 0.0811
vn 0.9923 0.0994 0.0741
vn 0.9513 0.1821 0.2489
vn 0.9513 0.1728 0.2553
vn 0.9107 0.2415 0.3352
vn 0.9088 0.2557 0.3298
vn 0.0 0.0 0.0

vt 0 0

g Group_001
f 1//1 2//1 4//1 3//1
f 4//2 2//2 6//2 5//2
f 5//3 6//3 8//3 7//3
f 7//4 8//4 10//4 9//4
f 9//5 10//5 12//5 11//5
f 11//6 12//6 14//6 13//6
f 13//7 14//7 16//7 15//7
f 15//8 16//8 18//8 17//8
f 17//9 18//9 20//9 19//9
f 19//10 20//10 22//10 21//10
f 21//11 22//11 24//11 23//11
f 23//12 24//12 26//12 25//12
f 23//13 25//13 28//13 27//13
f 27//14 28//14 30//14 29//14
f 27//15 29//15 32//15 31//15
f 27//16 31//16 34//16 33//16
f 34//17 31//17 36//17 35//17
f 36//18 31//18 38//18 37//18
f 36//19 37//19 40//19 39//19
f 36//20 39//20 42//20 41//20
f 42//21 39//21 44//21 43//21
f 44//22 39//22 46//22 45//22
f 44//23 45//23 48//23 47//23
f 44//24 47//24 50//24 49//24
f 50//25 47//25 52//25 51//25
f 52//26 47//26 54//26 53//26
f 52//27 53//27 56//27 55//27
f 52//28 55//28 58//28 57//28
f 58//29 55//29 60//29 59//29
f 60//30 55//30 62//30 61//30
f 60//31 61//31 64//31 63//31
f 60//32 63//32 66//32 65//32
f 66//33 63//33 68//33 67//33
f 68//34 63//34 70//34 69//34
f 68//35 69//35 72//35 71//35
f 68//36 71//36 74//36 73//36

#Vertex Count: 74