v 0.2344 3.9382 0.6182
v 0.2637 3.9995 1.0136
v 0.2166 3.923 0.6204
v 0.2405 3.9721 1.0174
v 0.2026 4.0186 1.4148
v 0.2253 4.0618 1.4087
v 0.115 4.06 1.8129
v 0.1317 4.1209 1.8044
v -0.0058 4.0952 2.2119
v -0.0002 4.1743 2.2008
v -0.1281 4.1275 2.6113
v -0.1352 4.2264 2.5974
v -0.2159 4.1611 3.0105
v -0.234 4.2831 2.9934
v -0.2433 4.1991 3.4091
v -0.2673 4.3478 3.3882
v -0.2224 4.2381 3.8075
v -0.2474 4.4152 3.7826
v -0.1748 4.2737 4.2065
v -0.1972 4.4775 4.1778
v -0.1203 4.303 4.6063
v -0.137 4.5292 4.5745
v -0.0694 4.3308 5.0063
v -0.0795 4.5743 4.9721
v -0.0 4.3639 5.4056
v -0.0 4.6191 5.3697
v -0.0575 4.0968 5.0392
v -0.0 4.1129 5.4409
v -0.0474 3.8718 5.0708
v -0.0 3.866 5.4756
v -0.1007 4.0914 4.636
v -0.084 3.8941 4.6637
v -0.0694 4.3308 5.0063
v -0.1203 4.303 4.6063
v -0.1748 4.2737 4.2065
v -0.1486 4.0869 4.2327
v -0.1263 3.9174 4.2565
v -0.084 3.8941 4.6637
v -0.1929 4.0757 3.8304
v -0.1678 3.9297 3.8509
v -0.1748 4.2737 4.2065
v -0.2224 4.2381 3.8075
v -0.2433 4.1991 3.4091
v -0.2151 4.0599 3.4286
v -0.1912 3.9338 3.4464
v -0.1678 3.9297 3.8509
v -0.1948 4.0438 3.027
v -0.1767 3.9357 3.0422
v -0.2433 4.1991 3.4091
v -0.2159 4.1611 3.0105
v -0.1281 4.1275 2.6113
v -0.1196 4.0303 2.6249
v -0.1124 3.9401 2.6376
v -0.1767 3.9357 3.0422
v -0.0124 4.017 2.2229
v -0.018 3.9445 2.2331
v -0.1281 4.1275 2.6113
v -0.0058 4.0952 2.2119
v 0.115 4.06 1.8129
v 0.0955 4.0 1.8213
v 0.0788 3.9447 1.8291
v -0.018 3.9445 2.2331
v 0.1758 3.9762 1.4208
v 0.1531 3.9371 1.4262
v 0.115 4.06 1.8129
v 0.2026 4.0186 1.4148
v 0.2405 3.9721 1.0174
v 0.2133 3.9454 1.0212
v 0.1901 3.9206 1.0246
v 0.1531 3.9371 1.4262
v 0.1956 3.9082 0.6224
v 0.1778 3.8942 0.6244
v 0.2405 3.9721 1.0174
v 0.2166 3.923 0.6204


vn 0.723 0.6892 -0.0475
vn 0.8382 0.5236 -0.1526
vn 0.9169 0.3121 -0.2488
vn 0.9441 0.1067 -0.3118
vn 0.9519 -0.0505 -0.3023
vn 0.9674 -0.14 -0.2111
vn 0.9855 -0.1609 -0.0546
vn 0.9879 -0.1388 0.0695
vn 0.9855 -0.1038 0.1341
vn 0.9864 -0.0687 0.149
vn 0.9898 -0.0371 0.1379
vn 0.9831 0.0058 0.1831
vn 0.9877 -0.0022 0.1566
vn 0.9916 -0.0031 0.129
vn 0.9941 -0.0495 0.0969
vn 0.9915 -0.0535 0.1184
vn 0.9869 -0.0952 0.1299
vn 0.9901 -0.0901 0.1081
vn 0.9855 -0.1334 0.1045
vn 0.9828 -0.1398 0.1209
vn 0.9818 -0.1787 0.0651
vn 0.9839 -0.169 0.0581
vn 0.9826 -0.1817 -0.0392
vn 0.9798 -0.1947 -0.0452
vn 0.9691 -0.1601 -0.1877
vn 0.9748 -0.1479 -0.1669
vn 0.9693 -0.0436 -0.2418
vn 0.9609 -0.0486 -0.2724
vn 0.9496 0.14 -0.2804
vn 0.96 0.1328 -0.2467
vn 0.9152 0.3554 -0.19
vn 0.9001 0.3761 -0.2199
vn 0.79 0.5985 -0.1328
vn 0.8144 0.5699 -0.1094
vn 0.6892 0.7239 -0.0317
vn 0.655 0.7541 -0.0475
vn 0.0 0.0 0.0

vt 0 0

g Group_001
f 1//1 2//1 4//1 3//1
f 4//2 2//2 6//2 5//2
f 5//3 6//3 8//3 7//3
f 7//4 8//4 10//4 9//4
f 9//5 10//5 12//5 11//5
f 11//6 12//6 14//6 13//6
f 13//7 14//7 16//7 15//7
f 15//8 16//8 18//8 17//8
f 17//9 18//9 20//9 19//9
f 19//10 20//10 22//10 21//10
f 21//11 22//11 24//11 23//11
f 23//12 24//12 26//12 25//12
f 23//13 25//13 28//13 27//13
f 27//14 28//14 30//14 29//14
f 27//15 29//15 32//15 31//15
f 27//16 31//16 34//16 33//16
f 34//17 31//17 36//17 35//17
f 36//18 31//18 38//18 37//18
f 36//19 37//19 40//19 39//19
f 36//20 39//20 42//20 41//20
f 42//21 39//21 44//21 43//21
f 44//22 39//22 46//22 45//22
f 44//23 45//23 48//23 47//23
f 44//24 47//24 50//24 49//24
f 50//25 47//25 52//25 51//25
f 52//26 47//26 54//26 53//26
f 52//27 53//27 56//27 55//27
f 52//28 55//28 58//28 57//28
f 58//29 55//29 60//29 59//29
f 60//30 55//30 62//30 61//30
f 60//31 61//31 64//31 63//31
f 60//32 63//32 66//32 65//32
f 66//33 63//33 68//33 67//33
f 68//34 63//34 70//34 69//34
f 68//35 69//35 72//35 71//35
f 68//36 71//36 74//36 73//36

#Vertex Count: 74