v 0.2581 3.9372 0.6184
v 0.2712 3.9981 1.0137
v 0.2385 3.922 0.6205
v 0.2457 3.9708 1.0176
v 0.189 4.017 1.415
v 0.214 4.0602 1.409
v 0.0865 4.0584 1.8131
v 0.1048 4.1193 1.8046
v -0.0409 4.0939 2.2121
v -0.0347 4.173 2.201
v -0.1608 4.1265 2.6114
v -0.1687 4.2255 2.5975
v -0.2383 4.1602 3.0106
v -0.2581 4.2821 2.9935
v -0.2487 4.1976 3.4093
v -0.2751 4.3464 3.3884
v -0.2103 4.236 3.8078
v -0.2379 4.4132 3.7829
v -0.1517 4.2713 4.2068
v -0.1762 4.4751 4.1782
v -0.0972 4.3009 4.6066
v -0.1156 4.5272 4.5748
v -0.0536 4.3295 5.0065
v -0.0647 4.573 4.9723
v -0.0 4.3633 5.4057
v -0.0 4.6185 5.3698
v -0.0405 4.0954 5.0394
v -0.0 4.1123 5.4409
v -0.0294 3.8705 5.071
v -0.0 3.8654 5.4756
v -0.0756 4.0893 4.6363
v -0.0572 3.892 4.664
v -0.0536 4.3295 5.0065
v -0.0972 4.3009 4.6066
v -0.1517 4.2713 4.2068
v -0.1228 4.0845 4.2331
v -0.0983 3.915 4.2569
v -0.0572 3.892 4.664
v -0.1778 4.0737 3.8306
v -0.1502 3.9277 3.8512
v -0.1517 4.2713 4.2068
v -0.2103 4.236 3.8078
v -0.2487 4.1976 3.4093
v -0.2177 4.0585 3.4288
v -0.1914 3.9324 3.4466
v -0.1502 3.9277 3.8512
v -0.215 4.0429 3.0271
v -0.1951 3.9348 3.0423
v -0.2487 4.1976 3.4093
v -0.2383 4.1602 3.0106
v -0.1608 4.1265 2.6114
v -0.1516 4.0293 2.6251
v -0.1437 3.9391 2.6378
v -0.1951 3.9348 3.0423
v -0.0482 4.0157 2.2231
v -0.0543 3.9432 2.2333
v -0.1608 4.1265 2.6114
v -0.0409 4.0939 2.2121
v 0.0865 4.0584 1.8131
v 0.065 3.9984 1.8216
v 0.0467 3.9431 1.8293
v -0.0543 3.9432 2.2333
v 0.1596 3.9746 1.421
v 0.1346 3.9356 1.4265
v 0.0865 4.0584 1.8131
v 0.189 4.017 1.415
v 0.2457 3.9708 1.0176
v 0.2157 3.944 1.0213
v 0.1903 3.9192 1.0248
v 0.1346 3.9356 1.4265
v 0.2154 3.9073 0.6226
v 0.1959 3.8932 0.6246
v 0.2457 3.9708 1.0176
v 0.2385 3.922 0.6205


vn 0.6893 0.7199 -0.082
vn 0.8104 0.5535 -0.1921
vn 0.8991 0.3347 -0.2822
vn 0.9373 0.1181 -0.3278
vn 0.953 -0.051 -0.2986
vn 0.9711 -0.148 -0.187
vn 0.9854 -0.1699 -0.0122
vn 0.9827 -0.1469 0.1132
vn 0.9805 -0.1113 0.1621
vn 0.9856 -0.0772 0.1504
vn 0.9915 -0.0452 0.1217
vn 0.9891 -0.0014 0.147
vn 0.993 -0.0103 0.1174
vn 0.9962 -0.0113 0.0865
vn 0.9954 -0.0588 0.0762
vn 0.993 -0.0633 0.1001
vn 0.9858 -0.1068 0.1294
vn 0.9893 -0.1009 0.1055
vn 0.9811 -0.1438 0.1294
vn 0.9775 -0.1512 0.1472
vn 0.9757 -0.1904 0.1082
vn 0.9786 -0.1796 0.1008
vn 0.9812 -0.1929 0.0044
vn 0.9782 -0.2075 -0.0023
vn 0.9722 -0.17 -0.1609
vn 0.9781 -0.1565 -0.1374
vn 0.9718 -0.0434 -0.2318
vn 0.9629 -0.0478 -0.2656
vn 0.9432 0.1551 -0.2937
vn 0.9552 0.1464 -0.2572
vn 0.898 0.3817 -0.2189
vn 0.8807 0.4023 -0.2502
vn 0.7595 0.6284 -0.168
vn 0.7863 0.6007 -0.1449
vn 0.6579 0.7504 -0.0633
vn 0.6192 0.7813 -0.0781
vn 0.0 0.0 0.0

vt 0 0

g Group_001
f 1//1 2//1 4//1 3//1
f 4//2 2//2 6//2 5//2
f 5//3 6//3 8//3 7//3
f 7//4 8//4 10//4 9//4
f 9//5 10//5 12//5 11//5
f 11//6 12//6 14//6 13//6
f 13//7 14//7 16//7 15//7
f 15//8 16//8 18//8 17//8
f 17//9 18//9 20//9 19//9
f 19//10 20//10 22//10 21//10
f 21//11 22//11 24//11 23//11
f 23//12 24//12 26//12 25//12
f 23//13 25//13 28//13 27//13
f 27//14 28//14 30//14 29//14
f 27//15 29//15 32//15 31//15
f 27//16 31//16 34//16 33//16
f 34//17 31//17 36//17 35//17
f 36//18 31//18 38//18 37//18
f 36//19 37//19 40//19 39//19
f 36//20 39//20 42//20 41//20
f 42//21 39//21 44//21 43//21
f 44//22 39//22 46//22 45//22
f 44//23 45//23 48//23 47//23
f 44//24 47//24 50//24 49//24
f 50//25 47//25 52//25 51//25
f 52//26 47//26 54//26 53//26
f 52//27 53//27 56//27 55//27
f 52//28 55//28 58//28 57//28
f 58//29 55//29 60//29 59//29
f 60//30 55//30 62//30 61//30
f 60//31 61//31 64//31 63//31
f 60//32 63//32 66//32 65//32
f 66//33 63//33 68//33 67//33
f 68//34 63//34 70//34 69//34
f 68//35 69//35 72//35 71//35
f 68//36 71//36 74//36 73//36

#Vertex Count: 74