v 0.2581 3.9377 0.6183
v 0.1525 3.9993 1.0136
v 0.2385 3.9225 0.6204
v 0.1271 3.972 1.0174
v -0.0212 4.0188 1.4148
v 0.0038 4.0619 1.4087
v -0.1608 4.0605 1.8128
v -0.1425 4.1213 1.8043
v -0.2525 4.0957 2.2118
v -0.2463 4.1748 2.2007
v -0.2818 4.1278 2.6112
v -0.2896 4.2268 2.5973
v -0.2399 4.1612 3.0105
v -0.2597 4.2831 2.9933
v -0.1293 4.1989 3.4091
v -0.1557 4.3477 3.3882
v 0.0032 4.2378 3.8076
v -0.0244 4.415 3.7827
v 0.1001 4.2733 4.2065
v 0.0756 4.4772 4.1779
v 0.12 4.3027 4.6063
v 0.1017 4.5289 4.5745
v 0.0867 4.3306 5.0063
v 0.0756 4.5741 4.9721
v -0.0 4.3638 5.4056
v -0.0 4.619 5.3697
v 0.0998 4.0966 5.0392
v -0.0 4.1128 5.4409
v 0.1109 3.8716 5.0708
v -0.0 3.8659 5.4756
v 0.1417 4.0911 4.6361
v 0.1601 3.8938 4.6638
v 0.0867 4.3306 5.0063
v 0.12 4.3027 4.6063
v 0.1001 4.2733 4.2065
v 0.129 4.0865 4.2328
v 0.1535 3.9171 4.2566
v 0.1601 3.8938 4.6638
v 0.0357 4.0755 3.8304
v 0.0632 3.9295 3.8509
v 0.1001 4.2733 4.2065
v 0.0032 4.2378 3.8076
v -0.1293 4.1989 3.4091
v -0.0984 4.0598 3.4287
v -0.072 3.9337 3.4464
v 0.0632 3.9295 3.8509
v -0.2165 4.0439 3.027
v -0.1967 3.9358 3.0422
v -0.1293 4.1989 3.4091
v -0.2399 4.1612 3.0105
v -0.2818 4.1278 2.6112
v -0.2725 4.0306 2.6249
v -0.2646 3.9404 2.6376
v -0.1967 3.9358 3.0422
v -0.2598 4.0175 2.2228
v -0.266 3.945 2.233
v -0.2818 4.1278 2.6112
v -0.2525 4.0957 2.2118
v -0.1608 4.0605 1.8128
v -0.1823 4.0004 1.8213
v -0.2006 3.9451 1.8291
v -0.266 3.945 2.233
v -0.0506 3.9763 1.4207
v -0.0756 3.9373 1.4262
v -0.1608 4.0605 1.8128
v -0.0212 4.0188 1.4148
v 0.1271 3.972 1.0174
v 0.0971 3.9452 1.0212
v 0.0716 3.9204 1.0247
v -0.0756 3.9373 1.4262
v 0.2155 3.9078 0.6225
v 0.1959 3.8937 0.6245
v 0.1271 3.972 1.0174
v 0.2385 3.9225 0.6204


vn 0.6782 0.6791 -0.281
vn 0.7811 0.5082 -0.3629
vn 0.879 0.3162 -0.3569
vn 0.959 0.1328 -0.2505
vn 0.9958 -0.0214 -0.0886
vn 0.9888 -0.1092 0.1016
vn 0.9537 -0.1242 0.2739
vn 0.9387 -0.1096 0.3269
vn 0.9632 -0.0965 0.2507
vn 0.9938 -0.0895 0.0665
vn 0.9951 -0.0718 -0.0675
vn 0.9796 -0.0492 -0.1947
vn 0.9731 -0.0576 -0.223
vn 0.9661 -0.0581 -0.2516
vn 0.9899 -0.085 -0.1131
vn 0.9919 -0.09 -0.0891
vn 0.9918 -0.1196 0.0453
vn 0.9933 -0.1133 0.021
vn 0.9671 -0.1286 0.2195
vn 0.9621 -0.136 0.2363
vn 0.9347 -0.1513 0.3217
vn 0.9383 -0.1416 0.3155
vn 0.9465 -0.1463 0.2877
vn 0.9461 -0.1608 0.2811
vn 0.983 -0.1319 0.1278
vn 0.9816 -0.1157 0.152
vn 0.9998 -0.0124 -0.0139
vn 0.9985 -0.0186 -0.0513
vn 0.9618 0.1701 -0.2144
vn 0.9711 0.1614 -0.1757
vn 0.8831 0.3637 -0.2966
vn 0.8645 0.3832 -0.3253
vn 0.7387 0.5867 -0.3317
vn 0.7652 0.5612 -0.3154
vn 0.6492 0.7167 -0.2547
vn 0.6132 0.7464 -0.2586
vn 0.0 0.0 0.0

vt 0 0

g Group_001
f 1//1 2//1 4//1 3//1
f 4//2 2//2 6//2 5//2
f 5//3 6//3 8//3 7//3
f 7//4 8//4 10//4 9//4
f 9//5 10//5 12//5 11//5
f 11//6 12//6 14//6 13//6
f 13//7 14//7 16//7 15//7
f 15//8 16//8 18//8 17//8
f 17//9 18//9 20//9 19//9
f 19//10 20//10 22//10 21//10
f 21//11 22//11 24//11 23//11
f 23//12 24//12 26//12 25//12
f 23//13 25//13 28//13 27//13
f 27//14 28//14 30//14 29//14
f 27//15 29//15 32//15 31//15
f 27//16 31//16 34//16 33//16
f 34//17 31//17 36//17 35//17
f 36//18 31//18 38//18 37//18
f 36//19 37//19 40//19 39//19
f 36//20 39//20 42//20 41//20
f 42//21 39//21 44//21 43//21
f 44//22 39//22 46//22 45//22
f 44//23 45//23 48//23 47//23
f 44//24 47//24 50//24 49//24
f 50//25 47//25 52//25 51//25
f 52//26 47//26 54//26 53//26
f 52//27 53//27 56//27 55//27
f 52//28 55//28 58//28 57//28
f 58//29 55//29 60//29 59//29
f 60//30 55//30 62//30 61//30
f 60//31 61//31 64//31 63//31
f 60//32 63//32 66//32 65//32
f 66//33 63//33 68//33 67//33
f 68//34 63//34 70//34 69//34
f 68//35 69//35 72//35 71//35
f 68//36 71//36 74//36 73//36

#Vertex Count: 74