v 0.1634 3.9421 0.6177
v 0.0276 4.0056 1.0127
v 0.1509 3.9269 0.6198
v 0.0114 3.9782 1.0165
v -0.1351 4.0265 1.4137
v -0.1192 4.0697 1.4076
v -0.2444 4.0685 1.8117
v -0.2327 4.1293 1.8032
v -0.2814 4.1024 2.2109
v -0.2775 4.1815 2.1998
v -0.2473 4.1327 2.6105
v -0.2523 4.2317 2.5966
v -0.1518 4.1658 3.0098
v -0.1644 4.2878 2.9927
v -0.0122 4.2057 3.4082
v -0.0289 4.3544 3.3873
v 0.1257 4.2475 3.8062
v 0.1082 4.4246 3.7813
v 0.2089 4.2845 4.2049
v 0.1932 4.4884 4.1763
v 0.2014 4.3123 4.605
v 0.1897 4.5386 4.5732
v 0.1358 4.3368 5.0055
v 0.1287 4.5803 4.9712
v -0.0 4.3666 5.4052
v -0.0 4.6218 5.3693
v 0.1441 4.1028 5.0383
v -0.0 4.1156 5.4405
v 0.1512 3.8778 5.07
v -0.0 3.8687 5.4752
v 0.2152 4.1007 4.6347
v 0.2269 3.9034 4.6624
v 0.1358 4.3368 5.0055
v 0.2014 4.3123 4.605
v 0.2089 4.2845 4.2049
v 0.2272 4.0977 4.2312
v 0.2429 3.9282 4.255
v 0.2269 3.9034 4.6624
v 0.1464 4.0851 3.829
v 0.1639 3.9392 3.8495
v 0.2089 4.2845 4.2049
v 0.1257 4.2475 3.8062
v -0.0122 4.2057 3.4082
v 0.0076 4.0665 3.4277
v 0.0243 3.9404 3.4454
v 0.1639 3.9392 3.8495
v -0.1369 4.0485 3.0263
v -0.1243 3.9405 3.0415
v -0.0122 4.2057 3.4082
v -0.1518 4.1658 3.0098
v -0.2473 4.1327 2.6105
v -0.2413 4.0356 2.6242
v -0.2363 3.9454 2.6369
v -0.1243 3.9405 3.0415
v -0.2861 4.0241 2.2219
v -0.29 3.9516 2.2321
v -0.2473 4.1327 2.6105
v -0.2814 4.1024 2.2109
v -0.2444 4.0685 1.8117
v -0.2581 4.0085 1.8202
v -0.2697 3.9532 1.8279
v -0.29 3.9516 2.2321
v -0.1538 3.9841 1.4196
v -0.1697 3.9451 1.4251
v -0.2444 4.0685 1.8117
v -0.1351 4.0265 1.4137
v 0.0114 3.9782 1.0165
v -0.0077 3.9515 1.0203
v -0.0239 3.9266 1.0238
v -0.1697 3.9451 1.4251
v 0.1362 3.9121 0.6219
v 0.1238 3.8981 0.6239
v 0.0114 3.9782 1.0165
v 0.1509 3.9269 0.6198


vn 0.7989 0.4899 -0.3489
vn 0.8646 0.3414 -0.3686
vn 0.9346 0.2075 -0.2889
vn 0.9892 0.0946 -0.1119
vn 0.9973 0.0042 0.0738
vn 0.9723 -0.0453 0.2293
vn 0.941 -0.055 0.3338
vn 0.9411 -0.0518 0.3341
vn 0.9754 -0.055 0.2137
vn 0.9979 -0.0646 -0.0075
vn 0.9866 -0.0608 -0.1514
vn 0.9492 -0.0571 -0.3096
vn 0.9433 -0.0619 -0.326
vn 0.9374 -0.0623 -0.3426
vn 0.9813 -0.0689 -0.1796
vn 0.9837 -0.0719 -0.1649
vn 0.9963 -0.0832 -0.021
vn 0.9962 -0.0795 -0.0365
vn 0.9781 -0.0758 0.1937
vn 0.9755 -0.0802 0.2047
vn 0.9401 -0.0798 0.3315
vn 0.9422 -0.0725 0.3272
vn 0.937 -0.0691 0.3426
vn 0.9375 -0.0793 0.3388
vn 0.9677 -0.0598 0.2448
vn 0.9646 -0.0492 0.2592
vn 0.9926 0.0103 0.1211
vn 0.9952 0.0064 0.0976
vn 0.989 0.1192 -0.0876
vn 0.9918 0.1117 -0.0614
vn 0.9387 0.239 -0.2484
vn 0.9284 0.2558 -0.2696
vn 0.8414 0.411 -0.3508
vn 0.8593 0.3841 -0.3378
vn 0.7821 0.5283 -0.3306
vn 0.7537 0.5665 -0.3333
vn 0.0 0.0 0.0

vt 0 0

g Group_001
f 1//1 2//1 4//1 3//1
f 4//2 2//2 6//2 5//2
f 5//3 6//3 8//3 7//3
f 7//4 8//4 10//4 9//4
f 9//5 10//5 12//5 11//5
f 11//6 12//6 14//6 13//6
f 13//7 14//7 16//7 15//7
f 15//8 16//8 18//8 17//8
f 17//9 18//9 20//9 19//9
f 19//10 20//10 22//10 21//10
f 21//11 22//11 24//11 23//11
f 23//12 24//12 26//12 25//12
f 23//13 25//13 28//13 27//13
f 27//14 28//14 30//14 29//14
f 27//15 29//15 32//15 31//15
f 27//16 31//16 34//16 33//16
f 34//17 31//17 36//17 35//17
f 36//18 31//18 38//18 37//18
f 36//19 37//19 40//19 39//19
f 36//20 39//20 42//20 41//20
f 42//21 39//21 44//21 43//21
f 44//22 39//22 46//22 45//22
f 44//23 45//23 48//23 47//23
f 44//24 47//24 50//24 49//24
f 50//25 47//25 52//25 51//25
f 52//26 47//26 54//26 53//26
f 52//27 53//27 56//27 55//27
f 52//28 55//28 58//28 57//28
f 58//29 55//29 60//29 59//29
f 60//30 55//30 62//30 61//30
f 60//31 61//31 64//31 63//31
f 60//32 63//32 66//32 65//32
f 66//33 63//33 68//33 67//33
f 68//34 63//34 70//34 69//34
f 68//35 69//35 72//35 71//35
f 68//36 71//36 74//36 73//36

#Vertex Count: 74