v 0.0923 3.9453 0.6172
v -0.0661 4.0103 1.012
v 0.0852 3.9302 0.6194
v -0.0754 3.9829 1.0159
v -0.2205 4.0324 1.4129
v -0.2114 4.0755 1.4068
v -0.3071 4.0745 1.8109
v -0.3004 4.1354 1.8023
v -0.3031 4.1074 2.2102
v -0.3009 4.1865 2.1991
v -0.2214 4.1365 2.61
v -0.2243 4.2354 2.5961
v -0.0857 4.1693 3.0093
v -0.0929 4.2913 2.9922
v 0.0757 4.2107 3.4075
v 0.0661 4.3595 3.3865
v 0.2176 4.2548 3.8052
v 0.2076 4.4319 3.7803
v 0.2904 4.2929 4.2038
v 0.2815 4.4967 4.1751
v 0.2624 4.3195 4.604
v 0.2557 4.5458 4.5722
v 0.1726 4.3415 5.0048
v 0.1686 4.585 4.9706
v -0.0 4.3687 5.4049
v -0.0 4.6239 5.369
v 0.1774 4.1074 5.0377
v -0.0 4.1177 5.4402
v 0.1814 3.8824 5.0693
v -0.0 3.8708 5.4749
v 0.2703 4.1079 4.6337
v 0.277 3.9106 4.6614
v 0.1726 4.3415 5.0048
v 0.2624 4.3195 4.604
v 0.2904 4.2929 4.2038
v 0.3009 4.1061 4.23
v 0.3099 3.9366 4.2538
v 0.277 3.9106 4.6614
v 0.2294 4.0924 3.828
v 0.2394 3.9464 3.8485
v 0.2904 4.2929 4.2038
v 0.2176 4.2548 3.8052
v 0.0757 4.2107 3.4075
v 0.087 4.0716 3.427
v 0.0966 3.9455 3.4447
v 0.2394 3.9464 3.8485
v -0.0772 4.052 3.0258
v -0.07 3.9439 3.041
v 0.0757 4.2107 3.4075
v -0.0857 4.1693 3.0093
v -0.2214 4.1365 2.61
v -0.218 4.0393 2.6237
v -0.2151 3.9491 2.6364
v -0.07 3.9439 3.041
v -0.3058 4.0291 2.2212
v -0.308 3.9566 2.2314
v -0.2214 4.1365 2.61
v -0.3031 4.1074 2.2102
v -0.3071 4.0745 1.8109
v -0.3149 4.0145 1.8193
v -0.3216 3.9592 1.8271
v -0.308 3.9566 2.2314
v -0.2312 3.9899 1.4188
v -0.2403 3.9509 1.4243
v -0.3071 4.0745 1.8109
v -0.2205 4.0324 1.4129
v -0.0754 3.9829 1.0159
v -0.0863 3.9562 1.0196
v -0.0955 3.9313 1.0231
v -0.2403 3.9509 1.4243
v 0.0768 3.9154 0.6214
v 0.0697 3.9013 0.6234
v -0.0754 3.9829 1.0159
v 0.0852 3.9302 0.6194


vn 0.8749 0.281 -0.3945
vn 0.9132 0.187 -0.362
vn 0.9667 0.1146 -0.2287
vn 0.998 0.0631 -0.0023
vn 0.981 0.0232 0.1926
vn 0.948 0.0013 0.3182
vn 0.9269 -0.0047 0.3754
vn 0.941 -0.009 0.3383
vn 0.9825 -0.0228 0.1846
vn 0.997 -0.045 -0.063
vn 0.9759 -0.052 -0.212
vn 0.9196 -0.0619 -0.3878
vn 0.9158 -0.0648 -0.3963
vn 0.912 -0.0646 -0.405
vn 0.9721 -0.0566 -0.2277
vn 0.9738 -0.0586 -0.2195
vn 0.9959 -0.0559 -0.0706
vn 0.9954 -0.0538 -0.0795
vn 0.9843 -0.0349 0.1733
vn 0.983 -0.0376 0.1796
vn 0.9412 -0.0248 0.337
vn 0.9422 -0.0209 0.3344
vn 0.9247 -0.0129 0.3804
vn 0.9255 -0.0183 0.3784
vn 0.9452 -0.0065 0.3265
vn 0.9426 -0.001 0.3341
vn 0.9755 0.0265 0.2182
vn 0.9783 0.025 0.2055
vn 0.9969 0.0773 0.0117
vn 0.997 0.0732 0.027
vn 0.9697 0.1336 -0.2046
vn 0.9653 0.1438 -0.2179
vn 0.9055 0.2335 -0.3542
vn 0.9141 0.2132 -0.345
vn 0.8695 0.3091 -0.3852
vn 0.8547 0.3441 -0.3886
vn 0.0 0.0 0.0

vt 0 0

g Group_001
f 1//1 2//1 4//1 3//1
f 4//2 2//2 6//2 5//2
f 5//3 6//3 8//3 7//3
f 7//4 8//4 10//4 9//4
f 9//5 10//5 12//5 11//5
f 11//6 12//6 14//6 13//6
f 13//7 14//7 16//7 15//7
f 15//8 16//8 18//8 17//8
f 17//9 18//9 20//9 19//9
f 19//10 20//10 22//10 21//10
f 21//11 22//11 24//11 23//11
f 23//12 24//12 26//12 25//12
f 23//13 25//13 28//13 27//13
f 27//14 28//14 30//14 29//14
f 27//15 29//15 32//15 31//15
f 27//16 31//16 34//16 33//16
f 34//17 31//17 36//17 35//17
f 36//18 31//18 38//18 37//18
f 36//19 37//19 40//19 39//19
f 36//20 39//20 42//20 41//20
f 42//21 39//21 44//21 43//21
f 44//22 39//22 46//22 45//22
f 44//23 45//23 48//23 47//23
f 44//24 47//24 50//24 49//24
f 50//25 47//25 52//25 51//25
f 52//26 47//26 54//26 53//26
f 52//27 53//27 56//27 55//27
f 52//28 55//28 58//28 57//28
f 58//29 55//29 60//29 59//29
f 60//30 55//30 62//30 61//30
f 60//31 61//31 64//31 63//31
f 60//32 63//32 66//32 65//32
f 66//33 63//33 68//33 67//33
f 68//34 63//34 70//34 69//34
f 68//35 69//35 72//35 71//35
f 68//36 71//36 74//36 73//36

#Vertex Count: 74