v 0.0449 3.9475 0.6169
v -0.1285 4.0134 1.0116
v 0.0414 3.9324 0.6191
v -0.1332 3.9861 1.0154
v -0.2774 4.0362 1.4123
v -0.2729 4.0794 1.4063
v -0.3489 4.0785 1.8103
v -0.3456 4.1394 1.8018
v -0.3176 4.1107 2.2097
v -0.3165 4.1898 2.1986
v -0.2041 4.1389 2.6097
v -0.2056 4.2379 2.5958
v -0.0417 4.1716 3.009
v -0.0453 4.2936 2.9919
v 0.1343 4.2141 3.407
v 0.1295 4.3629 3.3861
v 0.2789 4.2596 3.8045
v 0.2738 4.4367 3.7796
v 0.3448 4.2985 4.203
v 0.3403 4.5023 4.1743
v 0.3031 4.3243 4.6033
v 0.2997 4.5506 4.5715
v 0.1972 4.3446 5.0044
v 0.1952 4.5881 4.9701
v -0.0 4.3701 5.4047
v -0.0 4.6253 5.3688
v 0.1996 4.1105 5.0373
v -0.0 4.1191 5.44
v 0.2016 3.8855 5.0689
v -0.0 3.8722 5.4747
v 0.307 4.1127 4.633
v 0.3104 3.9154 4.6607
v 0.1972 4.3446 5.0044
v 0.3031 4.3243 4.6033
v 0.3448 4.2985 4.203
v 0.3501 4.1116 4.2292
v 0.3545 3.9422 4.2531
v 0.3104 3.9154 4.6607
v 0.2848 4.0972 3.8273
v 0.2898 3.9513 3.8478
v 0.3448 4.2985 4.203
v 0.2789 4.2596 3.8045
v 0.1343 4.2141 3.407
v 0.1399 4.075 3.4265
v 0.1447 3.9488 3.4443
v 0.2898 3.9513 3.8478
v -0.0374 4.0543 3.0255
v -0.0338 3.9462 3.0407
v 0.1343 4.2141 3.407
v -0.0417 4.1716 3.009
v -0.2041 4.1389 2.6097
v -0.2024 4.0418 2.6233
v -0.201 3.9516 2.636
v -0.0338 3.9462 3.0407
v -0.3189 4.0324 2.2207
v -0.3201 3.9599 2.2309
v -0.2041 4.1389 2.6097
v -0.3176 4.1107 2.2097
v -0.3489 4.0785 1.8103
v -0.3528 4.0185 1.8187
v -0.3561 3.9632 1.8265
v -0.3201 3.9599 2.2309
v -0.2828 3.9938 1.4183
v -0.2873 3.9548 1.4238
v -0.3489 4.0785 1.8103
v -0.2774 4.0362 1.4123
v -0.1332 3.9861 1.0154
v -0.1386 3.9593 1.0192
v -0.1433 3.9345 1.0227
v -0.2873 3.9548 1.4238
v 0.0372 3.9176 0.6211
v 0.0336 3.9035 0.6231
v -0.1332 3.9861 1.0154
v 0.0414 3.9324 0.6191


vn 0.9026 0.1159 -0.4146
vn 0.9335 0.073 -0.351
vn 0.9817 0.0478 -0.1846
vn 0.9966 0.0413 0.0713
vn 0.9629 0.0354 0.2676
vn 0.9274 0.0309 0.3728
vn 0.9155 0.0279 0.4014
vn 0.9401 0.0193 0.3404
vn 0.9863 -0.0017 0.1649
vn 0.9945 -0.0323 -0.0996
vn 0.9669 -0.0464 -0.251
vn 0.8977 -0.0649 -0.4358
vn 0.8957 -0.0663 -0.4398
vn 0.8937 -0.0661 -0.4438
vn 0.9647 -0.0487 -0.2586
vn 0.9658 -0.0494 -0.2547
vn 0.9939 -0.0375 -0.1036
vn 0.9935 -0.0363 -0.1079
vn 0.9872 -0.007 0.159
vn 0.9867 -0.0089 0.1623
vn 0.9403 0.0118 0.34
vn 0.9408 0.0138 0.3388
vn 0.9146 0.0241 0.4037
vn 0.915 0.0212 0.4029
vn 0.9259 0.027 0.3767
vn 0.9244 0.0302 0.3803
vn 0.9593 0.0382 0.2798
vn 0.9611 0.0362 0.2737
vn 0.9958 0.0484 0.0782
vn 0.9952 0.0471 0.0856
vn 0.9834 0.057 -0.1723
vn 0.9817 0.0639 -0.1794
vn 0.9325 0.0962 -0.3481
vn 0.9354 0.0865 -0.3428
vn 0.9017 0.1343 -0.4109
vn 0.8979 0.1495 -0.414
vn 0.0 0.0 0.0

vt 0 0

g Group_001
f 1//1 2//1 4//1 3//1
f 4//2 2//2 6//2 5//2
f 5//3 6//3 8//3 7//3
f 7//4 8//4 10//4 9//4
f 9//5 10//5 12//5 11//5
f 11//6 12//6 14//6 13//6
f 13//7 14//7 16//7 15//7
f 15//8 16//8 18//8 17//8
f 17//9 18//9 20//9 19//9
f 19//10 20//10 22//10 21//10
f 21//11 22//11 24//11 23//11
f 23//12 24//12 26//12 25//12
f 23//13 25//13 28//13 27//13
f 27//14 28//14 30//14 29//14
f 27//15 29//15 32//15 31//15
f 27//16 31//16 34//16 33//16
f 34//17 31//17 36//17 35//17
f 36//18 31//18 38//18 37//18
f 36//19 37//19 40//19 39//19
f 36//20 39//20 42//20 41//20
f 42//21 39//21 44//21 43//21
f 44//22 39//22 46//22 45//22
f 44//23 45//23 48//23 47//23
f 44//24 47//24 50//24 49//24
f 50//25 47//25 52//25 51//25
f 52//26 47//26 54//26 53//26
f 52//27 53//27 56//27 55//27
f 52//28 55//28 58//28 57//28
f 58//29 55//29 60//29 59//29
f 60//30 55//30 62//30 61//30
f 60//31 61//31 64//31 63//31
f 60//32 63//32 66//32 65//32
f 66//33 63//33 68//33 67//33
f 68//34 63//34 70//34 69//34
f 68//35 69//35 72//35 71//35
f 68//36 71//36 74//36 73//36

#Vertex Count: 74