v -0.027 3.949 0.6167
v -0.199 4.0151 1.0114
v -0.0251 3.9339 0.6188
v -0.1964 3.9877 1.0152
v -0.3207 4.0379 1.4121
v -0.3233 4.081 1.406
v -0.3618 4.0799 1.8101
v -0.3638 4.1408 1.8016
v -0.2962 4.1117 2.2096
v -0.297 4.1909 2.1985
v -0.1531 4.1398 2.6096
v -0.1525 4.2387 2.5957
v 0.0257 4.1727 3.0089
v 0.0275 4.2946 2.9917
v 0.1987 4.2158 3.4067
v 0.2011 4.3646 3.3858
v 0.3278 4.2622 3.8042
v 0.3302 4.4393 3.7793
v 0.3752 4.3014 4.2026
v 0.3773 4.5053 4.1739
v 0.3197 4.3269 4.6029
v 0.3213 4.5531 4.5711
v 0.2052 4.3462 5.0041
v 0.2062 4.5897 4.9699
v -0.0 4.3708 5.4046
v -0.0 4.626 5.3687
v 0.204 4.1122 5.037
v -0.0 4.1198 5.4399
v 0.203 3.8872 5.0686
v -0.0 3.8729 5.4746
v 0.3178 4.1153 4.6327
v 0.3162 3.918 4.6604
v 0.2052 4.3462 5.0041
v 0.3197 4.3269 4.6029
v 0.3752 4.3014 4.2026
v 0.3727 4.1146 4.2288
v 0.3705 3.9451 4.2526
v 0.3162 3.918 4.6604
v 0.3249 4.0998 3.827
v 0.3224 3.9538 3.8475
v 0.3752 4.3014 4.2026
v 0.3278 4.2622 3.8042
v 0.1987 4.2158 3.4067
v 0.1959 4.0767 3.4263
v 0.1935 3.9506 3.444
v 0.3224 3.9538 3.8475
v 0.0235 4.0553 3.0254
v 0.0217 3.9473 3.0405
v 0.1987 4.2158 3.4067
v 0.0257 4.1727 3.0089
v -0.1531 4.1398 2.6096
v -0.1539 4.0426 2.6232
v -0.1545 3.9524 2.6359
v 0.0217 3.9473 3.0405
v -0.2953 4.0335 2.2206
v -0.2945 3.961 2.2308
v -0.1531 4.1398 2.6096
v -0.2962 4.1117 2.2096
v -0.3618 4.0799 1.8101
v -0.3594 4.0199 1.8185
v -0.3574 3.9646 1.8263
v -0.2945 3.961 2.2308
v -0.3177 3.9954 1.4181
v -0.3151 3.9564 1.4235
v -0.3618 4.0799 1.8101
v -0.3207 4.0379 1.4121
v -0.1964 3.9877 1.0152
v -0.1934 3.961 1.019
v -0.1908 3.9362 1.0225
v -0.3151 3.9564 1.4235
v -0.0229 3.9191 0.6209
v -0.0209 3.9051 0.6229
v -0.1964 3.9877 1.0152
v -0.0251 3.9339 0.6188


vn 0.9152 -0.1489 -0.3746
vn 0.9528 -0.11 -0.2831
vn 0.9938 -0.0573 -0.0948
vn 0.9865 0.0032 0.1637
vn 0.9411 0.046 0.3351
vn 0.9123 0.0668 0.4041
vn 0.9175 0.0694 0.3917
vn 0.9516 0.0565 0.302
vn 0.993 0.0279 0.1146
vn 0.9904 -0.0108 -0.1375
vn 0.9613 -0.0331 -0.2736
vn 0.8893 -0.0619 -0.453
vn 0.8904 -0.0612 -0.4511
vn 0.8914 -0.0612 -0.449
vn 0.9623 -0.032 -0.2702
vn 0.9618 -0.0316 -0.272
vn 0.9907 -0.0081 -0.1357
vn 0.991 -0.0085 -0.1336
vn 0.9926 0.0313 0.1177
vn 0.9927 0.0316 0.116
vn 0.9513 0.0605 0.3023
vn 0.9511 0.0597 0.3031
vn 0.9178 0.0712 0.3905
vn 0.9175 0.0729 0.3909
vn 0.9131 0.0691 0.4019
vn 0.9141 0.0672 0.4
vn 0.9434 0.0451 0.3286
vn 0.9422 0.046 0.3319
vn 0.9872 -0.0011 0.1598
vn 0.9878 0.0003 0.1555
vn 0.9929 -0.0626 -0.1013
vn 0.993 -0.066 -0.0975
vn 0.951 -0.1227 -0.284
vn 0.9506 -0.1176 -0.2873
vn 0.9129 -0.1614 -0.3748
vn 0.9128 -0.1673 -0.3725
vn 0.0 0.0 0.0

vt 0 0

g Group_001
f 1//1 2//1 4//1 3//1
f 4//2 2//2 6//2 5//2
f 5//3 6//3 8//3 7//3
f 7//4 8//4 10//4 9//4
f 9//5 10//5 12//5 11//5
f 11//6 12//6 14//6 13//6
f 13//7 14//7 16//7 15//7
f 15//8 16//8 18//8 17//8
f 17//9 18//9 20//9 19//9
f 19//10 20//10 22//10 21//10
f 21//11 22//11 24//11 23//11
f 23//12 24//12 26//12 25//12
f 23//13 25//13 28//13 27//13
f 27//14 28//14 30//14 29//14
f 27//15 29//15 32//15 31//15
f 27//16 31//16 34//16 33//16
f 34//17 31//17 36//17 35//17
f 36//18 31//18 38//18 37//18
f 36//19 37//19 40//19 39//19
f 36//20 39//20 42//20 41//20
f 42//21 39//21 44//21 43//21
f 44//22 39//22 46//22 45//22
f 44//23 45//23 48//23 47//23
f 44//24 47//24 50//24 49//24
f 50//25 47//25 52//25 51//25
f 52//26 47//26 54//26 53//26
f 52//27 53//27 56//27 55//27
f 52//28 55//28 58//28 57//28
f 58//29 55//29 60//29 59//29
f 60//30 55//30 62//30 61//30
f 60//31 61//31 64//31 63//31
f 60//32 63//32 66//32 65//32
f 66//33 63//33 68//33 67//33
f 68//34 63//34 70//34 69//34
f 68//35 69//35 72//35 71//35
f 68//36 71//36 74//36 73//36

#Vertex Count: 74