v -0.0827 3.9476 0.6169
v -0.2168 4.0118 1.0118
v -0.0764 3.9324 0.619
v -0.2085 3.9844 1.0157
v -0.2895 4.0328 1.4128
v -0.2981 4.0759 1.4067
v -0.296 4.074 1.8109
v -0.3025 4.1348 1.8024
v -0.2149 4.1066 2.2103
v -0.2174 4.1857 2.1992
v -0.0764 4.136 2.6101
v -0.0743 4.235 2.5962
v 0.0784 4.1697 3.0093
v 0.0844 4.2916 2.9922
v 0.2118 4.2121 3.4073
v 0.2197 4.3609 3.3863
v 0.2995 4.257 3.8049
v 0.3076 4.4341 3.78
v 0.3205 4.2955 4.2034
v 0.3275 4.4993 4.1748
v 0.2649 4.3218 4.6036
v 0.2701 4.548 4.5718
v 0.1675 4.3429 5.0046
v 0.1709 4.5864 4.9704
v -0.0 4.3693 5.4048
v -0.0 4.6245 5.3689
v 0.1635 4.1089 5.0375
v -0.0 4.1183 5.4401
v 0.1602 3.8839 5.0691
v -0.0 3.8714 5.4748
v 0.2586 4.1102 4.6334
v 0.2534 3.9129 4.6611
v 0.1675 4.3429 5.0046
v 0.2649 4.3218 4.6036
v 0.3205 4.2955 4.2034
v 0.3123 4.1087 4.2297
v 0.3053 3.9392 4.2535
v 0.2534 3.9129 4.6611
v 0.2901 4.0946 3.8277
v 0.282 3.9487 3.8482
v 0.3205 4.2955 4.2034
v 0.2995 4.257 3.8049
v 0.2118 4.2121 3.4073
v 0.2025 4.073 3.4268
v 0.1946 3.9468 3.4445
v 0.282 3.9487 3.8482
v 0.0713 4.0524 3.0258
v 0.0653 3.9443 3.041
v 0.2118 4.2121 3.4073
v 0.0784 4.1697 3.0093
v -0.0764 4.136 2.6101
v -0.0789 4.0389 2.6237
v -0.081 3.9487 2.6364
v 0.0653 3.9443 3.041
v -0.2118 4.0283 2.2213
v -0.2092 3.9558 2.2315
v -0.0764 4.136 2.6101
v -0.2149 4.1066 2.2103
v -0.296 4.074 1.8109
v -0.2883 4.0139 1.8194
v -0.2817 3.9586 1.8272
v -0.2092 3.9558 2.2315
v -0.2795 3.9903 1.4188
v -0.271 3.9513 1.4243
v -0.296 4.074 1.8109
v -0.2895 4.0328 1.4128
v -0.2085 3.9844 1.0157
v -0.1986 3.9577 1.0194
v -0.1902 3.9329 1.0229
v -0.271 3.9513 1.4243
v -0.0691 3.9176 0.6211
v -0.0628 3.9036 0.6231
v -0.2085 3.9844 1.0157
v -0.0764 3.9324 0.619


vn 0.9037 -0.3454 -0.2532
vn 0.9546 -0.2515 -0.1599
vn 0.9897 -0.1432 0.0045
vn 0.9776 -0.0338 0.2076
vn 0.9433 0.0441 0.329
vn 0.9302 0.0842 0.3572
vn 0.9469 0.092 0.3082
vn 0.9757 0.0768 0.2051
vn 0.9979 0.0459 0.0454
vn 0.99 0.0083 -0.1411
vn 0.9712 -0.0156 -0.2376
vn 0.9211 -0.048 -0.3864
vn 0.9243 -0.0457 -0.379
vn 0.9273 -0.0457 -0.3715
vn 0.974 -0.0122 -0.2263
vn 0.9726 -0.0102 -0.2323
vn 0.9907 0.017 -0.1353
vn 0.9916 0.0149 -0.1286
vn 0.9969 0.0556 0.0559
vn 0.9971 0.0573 0.05
vn 0.9744 0.0894 0.2065
vn 0.974 0.0867 0.2093
vn 0.9475 0.0989 0.304
vn 0.9466 0.1034 0.3053
vn 0.9325 0.0908 0.3496
vn 0.9354 0.0864 0.3428
vn 0.9508 0.0403 0.3073
vn 0.9471 0.0414 0.3183
vn 0.9795 -0.0489 0.1955
vn 0.9822 -0.045 0.1822
vn 0.9869 -0.1605 -0.0178
vn 0.9853 -0.1707 -0.005
vn 0.9422 -0.2936 -0.1617
vn 0.9457 -0.275 -0.1734
vn 0.8918 -0.374 -0.2546
vn 0.8833 -0.4002 -0.2443
vn 0.0 0.0 0.0

vt 0 0

g Group_001
f 1//1 2//1 4//1 3//1
f 4//2 2//2 6//2 5//2
f 5//3 6//3 8//3 7//3
f 7//4 8//4 10//4 9//4
f 9//5 10//5 12//5 11//5
f 11//6 12//6 14//6 13//6
f 13//7 14//7 16//7 15//7
f 15//8 16//8 18//8 17//8
f 17//9 18//9 20//9 19//9
f 19//10 20//10 22//10 21//10
f 21//11 22//11 24//11 23//11
f 23//12 24//12 26//12 25//12
f 23//13 25//13 28//13 27//13
f 27//14 28//14 30//14 29//14
f 27//15 29//15 32//15 31//15
f 27//16 31//16 34//16 33//16
f 34//17 31//17 36//17 35//17
f 36//18 31//18 38//18 37//18
f 36//19 37//19 40//19 39//19
f 36//20 39//20 42//20 41//20
f 42//21 39//21 44//21 43//21
f 44//22 39//22 46//22 45//22
f 44//23 45//23 48//23 47//23
f 44//24 47//24 50//24 49//24
f 50//25 47//25 52//25 51//25
f 52//26 47//26 54//26 53//26
f 52//27 53//27 56//27 55//27
f 52//28 55//28 58//28 57//28
f 58//29 55//29 60//29 59//29
f 60//30 55//30 62//30 61//30
f 60//31 61//31 64//31 63//31
f 60//32 63//32 66//32 65//32
f 66//33 63//33 68//33 67//33
f 68//34 63//34 70//34 69//34
f 68//35 69//35 72//35 71//35
f 68//36 71//36 74//36 73//36

#Vertex Count: 74