v -0.1127 3.9468 0.617
v -0.2265 4.01 1.0121
v -0.1041 3.9316 0.6192
v -0.215 3.9827 1.0159
v -0.2727 4.03 1.4132
v -0.2844 4.0732 1.4071
v -0.2605 4.0708 1.8114
v -0.2695 4.1316 1.8028
v -0.171 4.1038 2.2107
v -0.1745 4.1829 2.1996
v -0.0351 4.134 2.6104
v -0.0322 4.233 2.5965
v 0.1068 4.1681 3.0095
v 0.115 4.29 2.9924
v 0.2189 4.2101 3.4075
v 0.2297 4.3589 3.3866
v 0.2843 4.2542 3.8053
v 0.2954 4.4314 3.7804
v 0.291 4.2923 4.2038
v 0.3006 4.4961 4.1752
v 0.2353 4.319 4.604
v 0.2426 4.5453 4.5722
v 0.1472 4.3412 5.0048
v 0.1518 4.5847 4.9706
v -0.0 4.3685 5.4049
v -0.0 4.6237 5.3691
v 0.1417 4.1071 5.0377
v -0.0 4.1175 5.4402
v 0.1371 3.8821 5.0694
v -0.0 3.8706 5.4749
v 0.2268 4.1074 4.6338
v 0.2195 3.9101 4.6615
v 0.1472 4.3412 5.0048
v 0.2353 4.319 4.604
v 0.291 4.2923 4.2038
v 0.2797 4.1055 4.2301
v 0.2701 3.936 4.2539
v 0.2195 3.9101 4.6615
v 0.2713 4.0918 3.8281
v 0.2602 3.9459 3.8486
v 0.291 4.2923 4.2038
v 0.2843 4.2542 3.8053
v 0.2189 4.2101 3.4075
v 0.2061 4.071 3.4271
v 0.1952 3.9448 3.4448
v 0.2602 3.9459 3.8486
v 0.0971 4.0508 3.026
v 0.0889 3.9427 3.0412
v 0.2189 4.2101 3.4075
v 0.1068 4.1681 3.0095
v -0.0351 4.134 2.6104
v -0.0385 4.0369 2.624
v -0.0414 3.9467 2.6367
v 0.0889 3.9427 3.0412
v -0.1668 4.0255 2.2217
v -0.1633 3.953 2.2319
v -0.0351 4.134 2.6104
v -0.171 4.1038 2.2107
v -0.2605 4.0708 1.8114
v -0.2499 4.0107 1.8198
v -0.2409 3.9554 1.8276
v -0.1633 3.953 2.2319
v -0.2589 3.9876 1.4192
v -0.2472 3.9485 1.4246
v -0.2605 4.0708 1.8114
v -0.2727 4.03 1.4132
v -0.215 3.9827 1.0159
v -0.2014 3.9559 1.0197
v -0.1898 3.9311 1.0232
v -0.2472 3.9485 1.4246
v -0.094 3.9168 0.6212
v -0.0854 3.9028 0.6232
v -0.215 3.9827 1.0159
v -0.1041 3.9316 0.6192


vn 0.8779 -0.4414 -0.1854
vn 0.9419 -0.3229 -0.0924
vn 0.9807 -0.1872 0.0569
vn 0.9715 -0.0543 0.2309
vn 0.9446 0.0425 0.3256
vn 0.9391 0.0936 0.3308
vn 0.9599 0.1039 0.2603
vn 0.9848 0.0873 0.1502
vn 0.9984 0.0553 0.0078
vn 0.9896 0.0188 -0.1429
vn 0.9759 -0.0059 -0.218
vn 0.9368 -0.0401 -0.3474
vn 0.9408 -0.0367 -0.3369
vn 0.9447 -0.0367 -0.326
vn 0.9794 -0.0008 -0.2021
vn 0.9776 0.0011 -0.2104
vn 0.9904 0.0302 -0.1349
vn 0.9917 0.028 -0.1257
vn 0.9974 0.0686 0.0223
vn 0.9973 0.0714 0.0142
vn 0.9827 0.1055 0.1521
vn 0.9825 0.1014 0.1562
vn 0.9605 0.1139 0.2538
vn 0.9592 0.1202 0.256
vn 0.9418 0.1025 0.3201
vn 0.9456 0.0966 0.3106
vn 0.9545 0.0381 0.2957
vn 0.9497 0.0393 0.3108
vn 0.974 -0.0741 0.2142
vn 0.9782 -0.0681 0.196
vn 0.9772 -0.2106 0.0265
vn 0.9733 -0.2255 0.0439
vn 0.9208 -0.3781 -0.0956
vn 0.9285 -0.3541 -0.1115
vn 0.86 -0.4744 -0.1881
vn 0.8449 -0.5057 -0.1746
vn 0.0 0.0 0.0

vt 0 0

g Group_001
f 1//1 2//1 4//1 3//1
f 4//2 2//2 6//2 5//2
f 5//3 6//3 8//3 7//3
f 7//4 8//4 10//4 9//4
f 9//5 10//5 12//5 11//5
f 11//6 12//6 14//6 13//6
f 13//7 14//7 16//7 15//7
f 15//8 16//8 18//8 17//8
f 17//9 18//9 20//9 19//9
f 19//10 20//10 22//10 21//10
f 21//11 22//11 24//11 23//11
f 23//12 24//12 26//12 25//12
f 23//13 25//13 28//13 27//13
f 27//14 28//14 30//14 29//14
f 27//15 29//15 32//15 31//15
f 27//16 31//16 34//16 33//16
f 34//17 31//17 36//17 35//17
f 36//18 31//18 38//18 37//18
f 36//19 37//19 40//19 39//19
f 36//20 39//20 42//20 41//20
f 42//21 39//21 44//21 43//21
f 44//22 39//22 46//22 45//22
f 44//23 45//23 48//23 47//23
f 44//24 47//24 50//24 49//24
f 50//25 47//25 52//25 51//25
f 52//26 47//26 54//26 53//26
f 52//27 53//27 56//27 55//27
f 52//28 55//28 58//28 57//28
f 58//29 55//29 60//29 59//29
f 60//30 55//30 62//30 61//30
f 60//31 61//31 64//31 63//31
f 60//32 63//32 66//32 65//32
f 66//33 63//33 68//33 67//33
f 68//34 63//34 70//34 69//34
f 68//35 69//35 72//35 71//35
f 68//36 71//36 74//36 73//36

#Vertex Count: 74