v -0.1743 3.9451 0.6173
v -0.2463 4.0064 1.0126
v -0.1609 3.93 0.6194
v -0.2283 3.979 1.0164
v -0.2382 4.0243 1.414
v -0.2565 4.0675 1.4079
v -0.1876 4.0642 1.8123
v -0.2016 4.125 1.8038
v -0.0808 4.0981 2.2115
v -0.0864 4.1772 2.2004
v 0.0499 4.1299 2.611
v 0.0544 4.2288 2.597
v 0.1652 4.1648 3.01
v 0.1781 4.2867 2.9928
v 0.2334 4.2059 3.4081
v 0.2503 4.3547 3.3872
v 0.2531 4.2485 3.8061
v 0.2703 4.4256 3.7812
v 0.2305 4.2857 4.2048
v 0.2454 4.4896 4.1761
v 0.1746 4.3133 4.6048
v 0.1859 4.5396 4.573
v 0.1054 4.3375 5.0054
v 0.1127 4.581 4.9711
v -0.0 4.3669 5.4052
v -0.0 4.6221 5.3693
v 0.0969 4.1034 5.0383
v -0.0 4.1159 5.4404
v 0.0897 3.8785 5.0699
v -0.0 3.869 5.4751
v 0.1613 4.1017 4.6346
v 0.15 3.9045 4.6623
v 0.1054 4.3375 5.0054
v 0.1746 4.3133 4.6048
v 0.2305 4.2857 4.2048
v 0.2128 4.0989 4.231
v 0.1979 3.9294 4.2548
v 0.15 3.9045 4.6623
v 0.2328 4.0861 3.8289
v 0.2155 3.9401 3.8494
v 0.2305 4.2857 4.2048
v 0.2531 4.2485 3.8061
v 0.2334 4.2059 3.4081
v 0.2134 4.0668 3.4277
v 0.1965 3.9407 3.4454
v 0.2155 3.9401 3.8494
v 0.1501 4.0475 3.0265
v 0.1372 3.9394 3.0417
v 0.2334 4.2059 3.4081
v 0.1652 4.1648 3.01
v 0.0499 4.1299 2.611
v 0.0446 4.0327 2.6246
v 0.04 3.9425 2.6373
v 0.1372 3.9394 3.0417
v -0.0743 4.0198 2.2225
v -0.0688 3.9473 2.2327
v 0.0499 4.1299 2.611
v -0.0808 4.0981 2.2115
v -0.1876 4.0642 1.8123
v -0.1711 4.0042 1.8208
v -0.1571 3.9489 1.8285
v -0.0688 3.9473 2.2327
v -0.2167 3.9819 1.42
v -0.1984 3.9429 1.4254
v -0.1876 4.0642 1.8123
v -0.2382 4.0243 1.414
v -0.2283 3.979 1.0164
v -0.2071 3.9523 1.0202
v -0.1892 3.9274 1.0237
v -0.1984 3.9429 1.4254
v -0.1451 3.9152 0.6215
v -0.1317 3.9011 0.6234
v -0.2283 3.979 1.0164
v -0.1609 3.93 0.6194


vn 0.7992 -0.5984 -0.0573
vn 0.8909 -0.4527 0.0382
vn 0.9489 -0.2723 0.1594
vn 0.9561 -0.0951 0.277
vn 0.947 0.0391 0.3189
vn 0.955 0.114 0.2739
vn 0.9793 0.1297 0.1556
vn 0.9935 0.1088 0.0342
vn 0.9949 0.0741 -0.069
vn 0.9884 0.0395 -0.147
vn 0.9842 0.0141 -0.1766
vn 0.9649 -0.0227 -0.2617
vn 0.9697 -0.0172 -0.2437
vn 0.9742 -0.0168 -0.2251
vn 0.9883 0.0221 -0.1512
vn 0.986 0.0251 -0.1646
vn 0.9892 0.0581 -0.1344
vn 0.9913 0.054 -0.12
vn 0.9944 0.095 -0.0465
vn 0.9933 0.0998 -0.0591
vn 0.9898 0.1376 0.0378
vn 0.9904 0.1307 0.0442
vn 0.9787 0.145 0.1454
vn 0.9767 0.1547 0.149
vn 0.9582 0.1271 0.2563
vn 0.9634 0.1188 0.2405
vn 0.962 0.0328 0.2712
vn 0.9548 0.0349 0.2953
vn 0.9598 -0.1241 0.2517
vn 0.9676 -0.1162 0.2243
vn 0.9447 -0.3079 0.113
vn 0.9348 -0.3273 0.138
vn 0.8521 -0.5226 0.0282
vn 0.8705 -0.4921 0.0073
vn 0.7737 -0.6301 -0.0657
vn 0.7421 -0.6685 -0.0483
vn 0.0 0.0 0.0

vt 0 0

g Group_001
f 1//1 2//1 4//1 3//1
f 4//2 2//2 6//2 5//2
f 5//3 6//3 8//3 7//3
f 7//4 8//4 10//4 9//4
f 9//5 10//5 12//5 11//5
f 11//6 12//6 14//6 13//6
f 13//7 14//7 16//7 15//7
f 15//8 16//8 18//8 17//8
f 17//9 18//9 20//9 19//9
f 19//10 20//10 22//10 21//10
f 21//11 22//11 24//11 23//11
f 23//12 24//12 26//12 25//12
f 23//13 25//13 28//13 27//13
f 27//14 28//14 30//14 29//14
f 27//15 29//15 32//15 31//15
f 27//16 31//16 34//16 33//16
f 34//17 31//17 36//17 35//17
f 36//18 31//18 38//18 37//18
f 36//19 37//19 40//19 39//19
f 36//20 39//20 42//20 41//20
f 42//21 39//21 44//21 43//21
f 44//22 39//22 46//22 45//22
f 44//23 45//23 48//23 47//23
f 44//24 47//24 50//24 49//24
f 50//25 47//25 52//25 51//25
f 52//26 47//26 54//26 53//26
f 52//27 53//27 56//27 55//27
f 52//28 55//28 58//28 57//28
f 58//29 55//29 60//29 59//29
f 60//30 55//30 62//30 61//30
f 60//31 61//31 64//31 63//31
f 60//32 63//32 66//32 65//32
f 66//33 63//33 68//33 67//33
f 68//34 63//34 70//34 69//34
f 68//35 69//35 72//35 71//35
f 68//36 71//36 74//36 73//36

#Vertex Count: 74