v -0.0 0.0023 0.0
v -0.0331 0.067 -0.0012
v 0.0073 0.0875 -0.2069
v -0.0274 0.1333 -0.1621
v 0.0331 0.067 0.0012
v 0.0388 0.1333 -0.1597
v -0.0073 0.0875 0.2069
v 0.0274 0.1333 0.1621
v -0.0331 0.067 -0.0012
v -0.0388 0.1333 0.1597
v -0.0411 0.2935 0.2264
v -0.0103 0.2935 0.2926
v 0.025 0.2935 0.2287
v 0.0274 0.1333 0.1621
v -0.0073 0.4994 0.2069
v 0.0274 0.4536 0.1621
v -0.0411 0.2935 0.2264
v -0.0388 0.4536 0.1597
v -0.0331 0.52 -0.0012
v -0.0 0.5847 0.0
v 0.0331 0.52 0.0012
v 0.0274 0.4536 0.1621
v 0.0073 0.4994 -0.2069
v 0.0388 0.4536 -0.1597
v -0.0331 0.52 -0.0012
v -0.0274 0.4536 -0.1621
v -0.025 0.2935 -0.2287
v 0.0103 0.2935 -0.2926
v 0.0411 0.2935 -0.2264
v 0.0388 0.4536 -0.1597
v 0.0073 0.0875 -0.2069
v 0.0388 0.1333 -0.1597
v -0.025 0.2935 -0.2287
v -0.0274 0.1333 -0.1621


vn -0.868 0.4476 0.215
vn 0.881 0.4476 0.1533
vn 0.868 0.4476 -0.215
vn -0.881 0.4476 -0.1533
vn -0.8911 0.1855 -0.4143
vn 0.8596 0.1855 -0.476
vn 0.8596 -0.1856 -0.476
vn -0.891 -0.1856 -0.4142
vn -0.881 -0.4475 -0.1535
vn 0.868 -0.4475 -0.2152
vn 0.881 -0.4475 0.1535
vn -0.868 -0.4475 0.2152
vn -0.8596 -0.1856 0.476
vn 0.891 -0.1856 0.4142
vn 0.8911 0.1855 0.4143
vn -0.8596 0.1855 0.476
vn 0.0 0.0 0.0

vt 0 0

g Group_001
f 1//1 2//1 4//1 3//1
f 1//2 3//2 6//2 5//2
f 1//3 5//3 8//3 7//3
f 1//4 7//4 10//4 9//4
f 10//5 7//5 12//5 11//5
f 12//6 7//6 14//6 13//6
f 12//7 13//7 16//7 15//7
f 12//8 15//8 18//8 17//8
f 18//9 15//9 20//9 19//9
f 20//10 15//10 22//10 21//10
f 20//11 21//11 24//11 23//11
f 20//12 23//12 26//12 25//12
f 26//13 23//13 28//13 27//13
f 28//14 23//14 30//14 29//14
f 28//15 29//15 32//15 31//15
f 28//16 31//16 34//16 33//16

#Vertex Count: 34