v 0.1005 1.937 0.6056
v 0.1005 2.2127 0.7628
v 0.1005 1.937 -0.0056
v 0.1005 2.3193 0.4661
v 0.1005 1.6883 0.8267
v 0.1005 1.6076 0.554
v 0.1005 1.4277 0.3217
v 0.1005 1.5131 -0.0056
v 0.1005 1.3861 -0.3733
v 0.1005 1.5751 -0.5404
v 0.1005 1.6956 -0.8358
v 0.1005 1.9327 -0.6908
v 0.1005 2.1814 -0.8234
v 0.1005 2.2584 -0.4773
v 0.1005 2.4067 -0.3121
v 0.1005 2.3496 -0.0099
v 0.1005 2.4612 0.3261
v 0.1005 2.3193 0.4661
v -0.0504 2.1843 -0.2951
v -0.0504 1.9267 -0.3015
v -0.0504 2.1869 -0.1242
v -0.0504 1.609 -0.1772
v -0.0504 1.8294 -0.444
v -0.0504 2.195 -0.5835
v -0.0504 1.6197 -0.4656
v -0.0504 1.6171 -0.6365
v -0.0485 2.0389 0.1472
v -0.0485 2.0213 0.2012
v -0.0485 2.231 0.1445
v -0.0485 2.1885 0.2851
v -0.0485 2.0224 0.0927
v -0.0485 2.1913 0.0035
v -0.0485 1.9769 0.0543
v -0.0485 2.0766 -0.0996
v -0.0485 1.9099 0.0392
v -0.0485 1.9156 -0.138
v -0.0485 1.8426 0.0528
v -0.0485 1.7538 -0.1028
v -0.0485 1.7963 0.0903
v -0.0485 1.6372 -0.0021
v -0.0485 1.7787 0.1446
v -0.0485 1.5946 0.1381
v -0.0485 1.7952 0.1993
v -0.0485 1.6343 0.2795
v -0.0485 1.8407 0.2377
v -0.0485 1.749 0.3826
v -0.0485 1.9077 0.2525
v -0.0485 1.91 0.4204
v -0.0485 1.975 0.2388
v -0.0485 2.0717 0.3859
v -0.0485 2.0213 0.2012
v -0.0485 2.1885 0.2851
v -0.0504 1.7762 0.5013
v -0.0504 1.6945 0.3964
v -0.0504 1.6751 0.5927
v -0.0504 1.5907 0.484
v -0.0504 2.2179 0.4769
v -0.0504 1.7846 0.4293
v -0.0504 2.2084 0.645
v -0.0504 1.7829 0.5791


vn -1.0 0.0 0.0
vn -1.0 0.0 0.0
vn -1.0 0.0 0.0
vn -1.0 0.0 0.0
vn -1.0 0.0 0.0
vn -1.0 0.0 0.0
vn -1.0 0.0 0.0
vn -1.0 0.0 0.0
vn 0.0 0.0 0.0
vn -1.0 0.0 0.0
vn -1.0 0.0 0.0
vn -1.0 0.0 0.0
vn 0.0 0.0 0.0
vn -1.0 0.0 0.0
vn -1.0 0.0 0.0
vn -1.0 0.0 0.0
vn -1.0 0.0 0.0
vn -1.0 0.0 0.0
vn -1.0 0.0 0.0
vn -1.0 0.0 0.0
vn -1.0 0.0 0.0
vn -1.0 0.0 0.0
vn -1.0 0.0 0.0
vn -1.0 0.0 0.0
vn -1.0 0.0 0.0
vn 0.0 0.0 0.0
vn -1.0 0.0 0.0
vn 0.0 0.0 0.0
vn -1.0 0.0 0.0
vn 0.0 0.0 0.0

vt 0 0

g Group_001

g Group_002

f 3//2 4//2 6//2 5//2
f 6//3 4//3 8//3 7//3
f 8//4 4//4 10//4 9//4
f 10//5 4//5 12//5 11//5
f 12//6 4//6 14//6 13//6
f 14//7 4//7 16//7 15//7

g Group_003


g Group_004

f 19//10 20//10 22//10 21//10
f 22//11 20//11 24//11 23//11
f 23//12 24//12 26//12 25//12

g Group_005

f 27//14 28//14 30//14 29//14
f 27//15 29//15 32//15 31//15
f 31//16 32//16 34//16 33//16
f 33//17 34//17 36//17 35//17
f 35//18 36//18 38//18 37//18
f 37//19 38//19 40//19 39//19
f 39//20 40//20 42//20 41//20
f 41//21 42//21 44//21 43//21
f 43//22 44//22 46//22 45//22
f 45//23 46//23 48//23 47//23
f 47//24 48//24 50//24 49//24
f 49//25 50//25 52//25 51//25

g Group_006

f 53//27 54//27 56//27 55//27

g Group_007

f 57//29 58//29 60//29 59//29

#Vertex Count: 60