v 0.067 1.692 0.5646
v 0.067 1.8705 0.6256
v 0.067 1.8705 -0.1762
v 0.067 1.8705 -0.1762
v 0.067 2.049 0.5646
v 0.067 2.049 0.5646
v 0.067 2.2003 0.3908
v 0.067 2.2003 0.3908
v 0.067 2.3015 0.1307
v 0.067 2.3015 0.1307
v 0.067 2.337 -0.1762
v 0.067 2.337 -0.1762
v 0.067 2.3015 -0.483
v 0.067 2.3015 -0.483
v 0.067 2.2003 -0.7432
v 0.067 2.2003 -0.7432
v 0.067 2.049 -0.917
v 0.067 2.049 -0.917
v 0.067 1.8705 -0.978
v 0.067 1.8705 -0.978
v 0.067 1.692 -0.917
v 0.067 1.692 -0.917
v 0.067 1.5406 -0.7432
v 0.067 1.5406 -0.7432
v 0.067 1.4515 -0.2978
v 0.067 1.4515 -0.2978
v 0.067 1.2792 -0.0505
v 0.067 1.2792 -0.0505
v 0.067 1.4455 0.0118
v 0.067 1.4455 0.0118
v 0.067 1.5406 0.3908
v 0.067 1.5406 0.3908
v 0.067 1.692 0.5646
v 0.067 1.692 0.5646
v -0.1304 2.1343 -0.9552
v -0.1304 1.7319 -0.7371
v -0.1304 2.1729 -0.7948
v -0.1304 1.8884 -0.6547
v -0.1304 1.8033 -0.5343
v -0.1304 1.8033 -0.5343
v -0.1304 1.4743 -0.6819
v -0.1304 1.5088 -0.8669
v -0.1304 2.1826 -0.5439
v -0.1304 1.8884 -0.6547
v -0.1304 2.1323 -0.3867
v -0.1304 1.8033 -0.5343
v -0.0486 1.4937 -0.4734
v -0.0486 1.4937 -0.1067
v -0.0486 1.643 -0.3233
v -0.0486 1.643 -0.065
v -0.0486 1.8 -0.4556
v -0.0486 1.7609 -0.3054
v -0.0486 1.9057 -0.2912
v -0.0486 1.9057 -0.2912
v -0.0486 1.9057 -0.111
v -0.0486 1.7609 -0.1253
v -0.0486 2.1419 -0.4306
v -0.0486 1.8 -0.4556
v -0.0486 1.9952 -0.2769
v -0.0486 1.9057 -0.2912
v -0.0486 2.1419 -0.0746
v -0.0486 1.9952 -0.047
v -0.1197 1.6998 0.0038
v -0.1197 1.6063 -0.0879
v -0.1197 1.6346 0.0827
v -0.1197 1.5108 0.0435
v -0.1197 1.6366 0.1709
v -0.1197 1.5263 0.2449
v -0.1197 1.7066 0.2102
v -0.1197 1.7056 0.3501
v -0.1197 1.7761 0.1548
v -0.1197 1.8555 0.2865
v -0.1197 1.8474 -0.0018
v -0.1197 1.9301 0.1298
v -0.1197 1.9922 -0.0763
v -0.1197 1.9999 0.0616
v -0.1197 2.1703 0.028
v -0.1197 2.0639 0.0995
v -0.1197 2.1873 0.2178
v -0.1197 2.0665 0.1808
v -0.1197 2.1031 0.3405
v -0.1197 2.0134 0.2536
v -0.0504 1.7264 0.4174
v -0.0504 1.6323 0.2966
v -0.0504 1.6099 0.5227
v -0.0504 1.5128 0.3976
v -0.0504 2.2352 0.3894
v -0.0504 1.7361 0.3345
v -0.0504 2.2242 0.583
v -0.0504 1.7342 0.5071


vn -1.0 0.0 0.0
vn -1.0 0.0 0.0
vn -1.0 0.0 0.0
vn -1.0 0.0 0.0
vn -1.0 0.0 0.0
vn -1.0 0.0 0.0
vn -1.0 0.0 0.0
vn -1.0 0.0 0.0
vn -1.0 0.0 0.0
vn -1.0 0.0 0.0
vn -1.0 0.0 0.0
vn -1.0 0.0 0.0
vn -1.0 0.0 0.0
vn -1.0 0.0 0.0
vn -1.0 0.0 0.0
vn -1.0 0.0 0.0
vn 0.0 0.0 0.0
vn -1.0 0.0 0.0
vn -1.0 0.0 0.0
vn -1.0 0.0 0.0
vn 0.0 0.0 0.0
vn -1.0 0.0 0.0
vn 0.0 0.0 0.0
vn -1.0 0.0 0.0
vn -1.0 0.0 0.0
vn -1.0 0.0 0.0
vn -1.0 0.0 0.0
vn 0.0 0.0 0.0
vn -1.0 0.0 0.0
vn -1.0 0.0 0.0
vn 0.0 0.0 0.0
vn -1.0 0.0 0.0
vn -1.0 0.0 0.0
vn -1.0 0.0 0.0
vn -1.0 0.0 0.0
vn -1.0 0.0 0.0
vn -1.0 0.0 0.0
vn -1.0 0.0 0.0
vn -1.0 0.0 0.0
vn -1.0 0.0 0.0
vn 0.0 0.0 0.0
vn -1.0 0.0 0.0
vn 0.0 0.0 0.0
vn -1.0 0.0 0.0
vn 0.0 0.0 0.0

vt 0 0

g Group_001
f 1//1 2//1 3//1
f 3//2 2//2 5//2
f 3//3 5//3 7//3
f 3//4 7//4 9//4
f 3//5 9//5 11//5
f 3//6 11//6 13//6
f 3//7 13//7 15//7
f 3//8 15//8 17//8
f 3//9 17//9 19//9
f 3//10 19//10 21//10
f 3//11 21//11 23//11
f 3//12 23//12 25//12
f 3//13 25//13 27//13
f 3//14 27//14 29//14
f 3//15 29//15 31//15
f 3//16 31//16 33//16

g Group_002

f 35//18 36//18 38//18 37//18
f 38//19 36//19 39//19
f 39//20 36//20 42//20 41//20

g Group_003


g Group_004


g Group_005

f 47//24 48//24 50//24 49//24
f 47//25 49//25 52//25 51//25
f 51//26 52//26 53//26
f 53//27 52//27 56//27 55//27

g Group_006

f 57//29 58//29 60//29 59//29
f 57//30 59//30 62//30 61//30

g Group_007

f 63//32 64//32 66//32 65//32
f 65//33 66//33 68//33 67//33
f 67//34 68//34 70//34 69//34
f 69//35 70//35 72//35 71//35
f 71//36 72//36 74//36 73//36
f 73//37 74//37 76//37 75//37
f 75//38 76//38 78//38 77//38
f 77//39 78//39 80//39 79//39

g Group_008


g Group_009

f 83//42 84//42 86//42 85//42

g Group_010

f 87//44 88//44 90//44 89//44

#Vertex Count: 90