v -0.0 -0.0885 -0.182
v -0.0 0.0885 -0.182
v -0.0 0.0802 -0.0763
v -0.0 0.1821 -0.1244
v -0.0 0.1821 0.0181
v -0.0 0.2593 -0.019
v -0.0 0.0885 0.0001
v -0.0 0.0885 0.0001
v -0.0 -0.0802 -0.0763
v -0.0 -0.0885 0.0001
v -0.0 -0.1821 0.0181
v -0.0 -0.1821 0.0181
v -0.0 -0.1821 -0.1244
v -0.0 -0.2593 -0.019
v -0.0 0.0802 -0.0763
v -0.0 -0.0885 -0.182
v -0.0 0.1627 0.3133
v -0.0 0.1627 0.3562
v -0.0 0.122 0.244
v -0.0 0.122 0.356
v -0.0 0.0593 0.244
v -0.0 0.0593 0.356
v -0.0 -0.0593 0.244
v -0.0 -0.0593 0.356
v -0.0 -0.122 0.244
v -0.0 -0.122 0.356
v -0.0 -0.1627 0.3133
v -0.0 -0.1627 0.3562
v -0.0 -0.1821 0.1184
v -0.0 -0.2593 0.1552
v -0.0 -0.1821 0.0181
v -0.0 -0.2593 -0.019
v -0.0 -0.0885 0.1367
v -0.0 -0.0885 0.0001
v -0.0 -0.122 0.244
v -0.0 -0.0593 0.244
v -0.0 0.0593 0.244
v -0.0 0.0885 0.1367
v -0.0 0.0885 0.0001
v -0.0 -0.0885 0.0001
v -0.0 0.1821 0.1184
v -0.0 0.1821 0.0181
v -0.0 0.2593 0.1552
v -0.0 0.2593 -0.019
v -0.0 0.122 0.244
v -0.0 0.1627 0.3133
v -0.0 0.0885 0.1367
v -0.0 0.0593 0.244


vn 1.0 0.0 0.0
vn 1.0 0.0 0.0
vn 1.0 0.0 0.0
vn 1.0 0.0 0.0
vn 1.0 0.0 0.0
vn 1.0 0.0 0.0
vn 1.0 0.0 0.0
vn 0.0 0.0 0.0
vn 1.0 0.0 0.0
vn 1.0 0.0 0.0
vn 1.0 0.0 0.0
vn 1.0 0.0 0.0
vn 1.0 0.0 0.0
vn 1.0 0.0 0.0
vn 1.0 0.0 0.0
vn 1.0 0.0 0.0
vn 1.0 0.0 0.0
vn 1.0 0.0 0.0
vn 1.0 0.0 0.0
vn 1.0 0.0 0.0
vn 1.0 0.0 0.0
vn 1.0 0.0 0.0
vn 1.0 0.0 0.0
vn 0.0 0.0 0.0

vt 0 0

g Group_001
f 1//1 2//1 4//1 3//1
f 3//2 4//2 6//2 5//2
f 3//3 5//3 7//3
f 3//4 7//4 10//4 9//4
f 9//5 10//5 11//5
f 9//6 11//6 14//6 13//6
f 9//7 13//7 16//7 15//7

g Group_002

f 17//9 18//9 20//9 19//9
f 19//10 20//10 22//10 21//10
f 21//11 22//11 24//11 23//11
f 23//12 24//12 26//12 25//12
f 25//13 26//13 28//13 27//13
f 25//14 27//14 30//14 29//14
f 29//15 30//15 32//15 31//15
f 29//16 31//16 34//16 33//16
f 29//17 33//17 36//17 35//17
f 36//18 33//18 38//18 37//18
f 38//19 33//19 40//19 39//19
f 38//20 39//20 42//20 41//20
f 41//21 42//21 44//21 43//21
f 41//22 43//22 46//22 45//22
f 41//23 45//23 48//23 47//23

#Vertex Count: 48