v -0.4084 -0.0365 -0.2133
v -0.4186 -0.0481 -0.2699
v -0.3911 -0.1009 -0.2158
v -0.4053 -0.0929 -0.2986
v -0.3958 -0.0368 -0.1511
v -0.3741 -0.1006 -0.1507
v -0.3876 -0.0428 -0.1182
v -0.3629 -0.0996 -0.1078
v -0.3276 -0.1618 -0.1033
v -0.3366 -0.18 -0.1459
v -0.2884 -0.2284 -0.1012
v -0.2677 -0.2678 -0.1358
v -0.3055 -0.2601 -0.2169
v -0.3627 -0.1678 -0.2156
v -0.3432 -0.2258 -0.2692
v -0.3806 -0.1594 -0.2975
v -0.4053 -0.0929 -0.2986
v -0.3911 -0.1009 -0.2158
v -0.3741 -0.1006 -0.1507
v -0.3366 -0.18 -0.1459


vn -0.9348 0.311 -0.1717
vn -0.9329 0.2874 -0.2169
vn -0.9181 0.3342 -0.2129
vn -0.857 0.4211 -0.297
vn -0.7969 0.5359 -0.279
vn -0.7958 0.5442 -0.2654
vn -0.8559 0.4756 -0.2033
vn -0.92 0.3648 -0.143
vn -0.8862 0.3907 -0.2489
vn 0.0 0.0 0.0

vt 0 0

g Group_001
f 1//1 2//1 4//1 3//1
f 1//2 3//2 6//2 5//2
f 5//3 6//3 8//3 7//3
f 8//4 6//4 10//4 9//4
f 9//5 10//5 12//5 11//5
f 12//6 10//6 14//6 13//6
f 13//7 14//7 16//7 15//7
f 16//8 14//8 18//8 17//8
f 18//9 14//9 20//9 19//9

#Vertex Count: 20