v -0.1061 3.9456 0.6172
v 0.0472 4.0074 1.0124
v -0.0899 3.9304 0.6193
v 0.065 3.9801 1.0163
v 0.2095 4.026 1.4138
v 0.194 4.0692 1.4077
v 0.3011 4.0661 1.812
v 0.2908 4.127 1.8035
v 0.3078 4.0997 2.2113
v 0.3042 4.1789 2.2001
v 0.2379 4.1311 2.6108
v 0.241 4.2301 2.5969
v 0.11 4.1658 3.0098
v 0.1185 4.2877 2.9927
v -0.0513 4.2071 3.408
v -0.0404 4.3559 3.387
v -0.1985 4.2502 3.8058
v -0.1875 4.4273 3.7809
v -0.2782 4.2876 4.2045
v -0.2688 4.4915 4.1759
v -0.2555 4.315 4.6046
v -0.2486 4.5413 4.5728
v -0.1692 4.3386 5.0052
v -0.165 4.5821 4.971
v -0.0 4.3673 5.4051
v -0.0 4.6226 5.3692
v -0.174 4.1045 5.0381
v -0.0 4.1164 5.4404
v -0.1782 3.8795 5.0697
v -0.0 3.8695 5.4751
v -0.2636 4.1034 4.6343
v -0.2705 3.9061 4.6621
v -0.1692 4.3386 5.0052
v -0.2555 4.315 4.6046
v -0.2782 4.2876 4.2045
v -0.2894 4.1008 4.2308
v -0.2988 3.9314 4.2546
v -0.2705 3.9061 4.6621
v -0.2115 4.0878 3.8287
v -0.2225 3.9418 3.8492
v -0.2782 4.2876 4.2045
v -0.1985 4.2502 3.8058
v -0.0513 4.2071 3.408
v -0.0641 4.068 3.4275
v -0.075 3.9419 3.4452
v -0.2225 3.9418 3.8492
v 0.1002 4.0484 3.0263
v 0.0918 3.9404 3.0415
v -0.0513 4.2071 3.408
v 0.11 4.1658 3.0098
v 0.2379 4.1311 2.6108
v 0.2341 4.0339 2.6244
v 0.231 3.9437 2.6371
v 0.0918 3.9404 3.0415
v 0.312 4.0215 2.2223
v 0.3156 3.949 2.2324
v 0.2379 4.1311 2.6108
v 0.3078 4.0997 2.2113
v 0.3011 4.0661 1.812
v 0.3133 4.0061 1.8205
v 0.3236 3.9508 1.8283
v 0.3156 3.949 2.2324
v 0.2277 3.9836 1.4197
v 0.2432 3.9445 1.4252
v 0.3011 4.0661 1.812
v 0.2095 4.026 1.4138
v 0.065 3.9801 1.0163
v 0.086 3.9533 1.02
v 0.1038 3.9285 1.0235
v 0.2432 3.9445 1.4252
v -0.0709 3.9157 0.6214
v -0.0547 3.9016 0.6234
v 0.065 3.9801 1.0163
v -0.0899 3.9304 0.6193


vn 0.7504 -0.5482 0.3691
vn 0.8609 -0.3549 0.3645
vn 0.9475 -0.1998 0.2495
vn 0.995 -0.0938 0.0352
vn 0.9864 -0.0256 -0.1622
vn 0.9535 0.0078 -0.3013
vn 0.9264 0.0134 -0.3762
vn 0.9366 0.0136 -0.3501
vn 0.9791 0.0241 -0.2017
vn 0.9978 0.0447 0.0494
vn 0.9777 0.0517 0.2038
vn 0.9225 0.0613 0.381
vn 0.9187 0.0639 0.3898
vn 0.9148 0.0642 0.3988
vn 0.9738 0.0566 0.2201
vn 0.9756 0.058 0.2116
vn 0.9967 0.0564 0.058
vn 0.9962 0.0538 0.068
vn 0.9816 0.0371 -0.1876
vn 0.9799 0.0404 -0.1954
vn 0.937 0.0312 -0.3479
vn 0.9384 0.0272 -0.3444
vn 0.9244 0.0227 -0.3808
vn 0.925 0.0283 -0.3789
vn 0.9501 0.0165 -0.3116
vn 0.9471 0.0098 -0.3209
vn 0.9799 -0.0306 -0.1971
vn 0.9833 -0.0275 -0.1798
vn 0.9932 -0.1159 0.0138
vn 0.9939 -0.1095 -0.0096
vn 0.9512 -0.2311 0.2047
vn 0.9416 -0.2475 0.2282
vn 0.8373 -0.427 0.3414
vn 0.857 -0.401 0.3238
vn 0.732 -0.5922 0.3369
vn 0.6998 -0.6266 0.343
vn 0.0 0.0 0.0

vt 0 0

g Group_001
f 1//1 2//1 4//1 3//1
f 4//2 2//2 6//2 5//2
f 5//3 6//3 8//3 7//3
f 7//4 8//4 10//4 9//4
f 9//5 10//5 12//5 11//5
f 11//6 12//6 14//6 13//6
f 13//7 14//7 16//7 15//7
f 15//8 16//8 18//8 17//8
f 17//9 18//9 20//9 19//9
f 19//10 20//10 22//10 21//10
f 21//11 22//11 24//11 23//11
f 23//12 24//12 26//12 25//12
f 23//13 25//13 28//13 27//13
f 27//14 28//14 30//14 29//14
f 27//15 29//15 32//15 31//15
f 27//16 31//16 34//16 33//16
f 34//17 31//17 36//17 35//17
f 36//18 31//18 38//18 37//18
f 36//19 37//19 40//19 39//19
f 36//20 39//20 42//20 41//20
f 42//21 39//21 44//21 43//21
f 44//22 39//22 46//22 45//22
f 44//23 45//23 48//23 47//23
f 44//24 47//24 50//24 49//24
f 50//25 47//25 52//25 51//25
f 52//26 47//26 54//26 53//26
f 52//27 53//27 56//27 55//27
f 52//28 55//28 58//28 57//28
f 58//29 55//29 60//29 59//29
f 60//30 55//30 62//30 61//30
f 60//31 61//31 64//31 63//31
f 60//32 63//32 66//32 65//32
f 66//33 63//33 68//33 67//33
f 68//34 63//34 70//34 69//34
f 68//35 69//35 72//35 71//35
f 68//36 71//36 74//36 73//36

#Vertex Count: 74