v 0.1633 3.9411 0.6178
v 0.2412 4.0035 1.013
v 0.1508 3.926 0.62
v 0.225 3.9762 1.0168
v 0.2432 4.0233 1.4141
v 0.2592 4.0665 1.4081
v 0.2007 4.0648 1.8122
v 0.2123 4.1256 1.8037
v 0.0995 4.0991 2.2113
v 0.1034 4.1783 2.2002
v -0.0297 4.1304 2.6109
v -0.0347 4.2294 2.597
v -0.149 4.164 3.0101
v -0.1616 4.2859 2.993
v -0.2271 4.2033 3.4085
v -0.2439 4.3521 3.3876
v -0.2586 4.2443 3.8067
v -0.2761 4.4214 3.7818
v -0.2444 4.2808 4.2055
v -0.26 4.4847 4.1768
v -0.1897 4.3091 4.6054
v -0.2014 4.5354 4.5736
v -0.1167 4.3348 5.0057
v -0.1238 4.5783 4.9715
v -0.0 4.3656 5.4053
v -0.0 4.6209 5.3695
v -0.1084 4.1007 5.0386
v -0.0 4.1147 5.4406
v -0.1013 3.8757 5.0703
v -0.0 3.8677 5.4753
v -0.1759 4.0975 4.6352
v -0.1642 3.9002 4.6629
v -0.1167 4.3348 5.0057
v -0.1897 4.3091 4.6054
v -0.2444 4.2808 4.2055
v -0.226 4.094 4.2317
v -0.2104 3.9245 4.2555
v -0.1642 3.9002 4.6629
v -0.2379 4.0819 3.8295
v -0.2204 3.9359 3.85
v -0.2444 4.2808 4.2055
v -0.2586 4.2443 3.8067
v -0.2271 4.2033 3.4085
v -0.2074 4.0642 3.428
v -0.1906 3.9381 3.4458
v -0.2204 3.9359 3.85
v -0.1341 4.0467 3.0266
v -0.1215 3.9386 3.0418
v -0.2271 4.2033 3.4085
v -0.149 4.164 3.0101
v -0.0297 4.1304 2.6109
v -0.0238 4.0333 2.6245
v -0.0187 3.943 2.6372
v -0.1215 3.9386 3.0418
v 0.0948 4.0209 2.2223
v 0.0909 3.9484 2.2325
v -0.0297 4.1304 2.6109
v 0.0995 4.0991 2.2113
v 0.2007 4.0648 1.8122
v 0.187 4.0047 1.8207
v 0.1753 3.9494 1.8284
v 0.0909 3.9484 2.2325
v 0.2245 3.9809 1.4201
v 0.2086 3.9419 1.4256
v 0.2007 4.0648 1.8122
v 0.2432 4.0233 1.4141
v 0.225 3.9762 1.0168
v 0.2059 3.9494 1.0206
v 0.1897 3.9246 1.0241
v 0.2086 3.9419 1.4256
v 0.1362 3.9112 0.622
v 0.1237 3.8971 0.624
v 0.225 3.9762 1.0168
v 0.1508 3.926 0.62


vn 0.8206 0.5663 0.0771
vn 0.9103 0.4136 -0.0159
vn 0.9619 0.236 -0.1383
vn 0.9626 0.0699 -0.2618
vn 0.9484 -0.0498 -0.3132
vn 0.9525 -0.1154 -0.2818
vn 0.9749 -0.1311 -0.1798
vn 0.9915 -0.1133 -0.0639
vn 0.9957 -0.0797 0.048
vn 0.9886 -0.0424 0.1448
vn 0.9824 -0.0131 0.1865
vn 0.9578 0.0266 0.2863
vn 0.9629 0.0214 0.2692
vn 0.9677 0.0208 0.2513
vn 0.9872 -0.0217 0.1582
vn 0.9846 -0.0245 0.173
vn 0.9894 -0.0615 0.1315
vn 0.9916 -0.0575 0.1163
vn 0.9946 -0.1005 0.0271
vn 0.9936 -0.1058 0.0388
vn 0.9877 -0.1416 -0.0662
vn 0.9883 -0.1346 -0.0714
vn 0.9747 -0.1462 -0.1692
vn 0.9726 -0.1555 -0.1731
vn 0.9551 -0.13 -0.2661
vn 0.96 -0.1211 -0.2523
vn 0.9614 -0.0453 -0.2715
vn 0.9551 -0.0476 -0.2926
vn 0.9663 0.0948 -0.2394
vn 0.9726 0.0886 -0.2149
vn 0.9589 0.2674 -0.0949
vn 0.9515 0.284 -0.1185
vn 0.878 0.4786 -0.0067
vn 0.8924 0.451 0.0143
vn 0.7959 0.5993 0.0859
vn 0.7705 0.6338 0.069
vn 0.0 0.0 0.0

vt 0 0

g Group_001
f 1//1 2//1 4//1 3//1
f 4//2 2//2 6//2 5//2
f 5//3 6//3 8//3 7//3
f 7//4 8//4 10//4 9//4
f 9//5 10//5 12//5 11//5
f 11//6 12//6 14//6 13//6
f 13//7 14//7 16//7 15//7
f 15//8 16//8 18//8 17//8
f 17//9 18//9 20//9 19//9
f 19//10 20//10 22//10 21//10
f 21//11 22//11 24//11 23//11
f 23//12 24//12 26//12 25//12
f 23//13 25//13 28//13 27//13
f 27//14 28//14 30//14 29//14
f 27//15 29//15 32//15 31//15
f 27//16 31//16 34//16 33//16
f 34//17 31//17 36//17 35//17
f 36//18 31//18 38//18 37//18
f 36//19 37//19 40//19 39//19
f 36//20 39//20 42//20 41//20
f 42//21 39//21 44//21 43//21
f 44//22 39//22 46//22 45//22
f 44//23 45//23 48//23 47//23
f 44//24 47//24 50//24 49//24
f 50//25 47//25 52//25 51//25
f 52//26 47//26 54//26 53//26
f 52//27 53//27 56//27 55//27
f 52//28 55//28 58//28 57//28
f 58//29 55//29 60//29 59//29
f 60//30 55//30 62//30 61//30
f 60//31 61//31 64//31 63//31
f 60//32 63//32 66//32 65//32
f 66//33 63//33 68//33 67//33
f 68//34 63//34 70//34 69//34
f 68//35 69//35 72//35 71//35
f 68//36 71//36 74//36 73//36

#Vertex Count: 74