v 0.2817 3.9362 0.6185
v 0.2787 3.9968 1.0139
v 0.2604 3.921 0.6206
v 0.2509 3.9695 1.0178
v 0.1754 4.0154 1.4152
v 0.2027 4.0586 1.4092
v 0.0579 4.0568 1.8134
v 0.0779 4.1177 1.8048
v -0.076 4.0926 2.2123
v -0.0692 4.1717 2.2011
v -0.1936 4.1255 2.6116
v -0.2022 4.2245 2.5977
v -0.2606 4.1592 3.0108
v -0.2822 4.2812 2.9936
v -0.2541 4.1962 3.4095
v -0.2829 4.345 3.3886
v -0.1982 4.234 3.8081
v -0.2283 4.4111 3.7832
v -0.1285 4.2689 4.2071
v -0.1553 4.4728 4.1785
v -0.0741 4.2989 4.6069
v -0.0942 4.5251 4.5751
v -0.0378 4.3282 5.0067
v -0.05 4.5717 4.9724
v -0.0 4.3627 5.4058
v -0.0 4.6179 5.3699
v -0.0236 4.0941 5.0396
v -0.0 4.1117 5.441
v -0.0115 3.8691 5.0712
v -0.0 3.8648 5.4757
v -0.0505 4.0873 4.6366
v -0.0305 3.89 4.6643
v -0.0378 4.3282 5.0067
v -0.0741 4.2989 4.6069
v -0.1285 4.2689 4.2071
v -0.097 4.0821 4.2334
v -0.0702 3.9126 4.2572
v -0.0305 3.89 4.6643
v -0.1628 4.0716 3.8309
v -0.1327 3.9256 3.8514
v -0.1285 4.2689 4.2071
v -0.1982 4.234 3.8081
v -0.2541 4.1962 3.4095
v -0.2203 4.0571 3.429
v -0.1916 3.9309 3.4468
v -0.1327 3.9256 3.8514
v -0.2352 4.0419 3.0272
v -0.2135 3.9338 3.0424
v -0.2541 4.1962 3.4095
v -0.2606 4.1592 3.0108
v -0.1936 4.1255 2.6116
v -0.1835 4.0284 2.6252
v -0.1749 3.9382 2.6379
v -0.2135 3.9338 3.0424
v -0.0839 4.0144 2.2233
v -0.0906 3.9419 2.2334
v -0.1936 4.1255 2.6116
v -0.076 4.0926 2.2123
v 0.0579 4.0568 1.8134
v 0.0345 3.9968 1.8218
v 0.0145 3.9415 1.8296
v -0.0906 3.9419 2.2334
v 0.1434 3.973 1.4212
v 0.1161 3.934 1.4267
v 0.0579 4.0568 1.8134
v 0.1754 4.0154 1.4152
v 0.2509 3.9695 1.0178
v 0.2182 3.9427 1.0215
v 0.1904 3.9179 1.025
v 0.1161 3.934 1.4267
v 0.2353 3.9063 0.6227
v 0.2139 3.8922 0.6247
v 0.2509 3.9695 1.0178
v 0.2604 3.921 0.6206


vn 0.6581 0.7444 -0.1128
vn 0.7824 0.5794 -0.2283
vn 0.8803 0.356 -0.3138
vn 0.9302 0.1295 -0.3433
vn 0.9542 -0.0512 -0.2949
vn 0.9743 -0.156 -0.1624
vn 0.9834 -0.1788 0.0299
vn 0.9756 -0.1544 0.1561
vn 0.9746 -0.1189 0.1896
vn 0.9847 -0.0861 0.1517
vn 0.993 -0.0535 0.1054
vn 0.9938 -0.0088 0.1104
vn 0.9968 -0.0183 0.0776
vn 0.9988 -0.0195 0.0438
vn 0.9962 -0.068 0.0553
vn 0.994 -0.0729 0.0815
vn 0.9846 -0.1181 0.1289
vn 0.9884 -0.1117 0.1027
vn 0.9759 -0.1543 0.1544
vn 0.9715 -0.1617 0.1734
vn 0.968 -0.2011 0.1503
vn 0.9714 -0.1898 0.1424
vn 0.9779 -0.2036 0.0477
vn 0.9748 -0.2194 0.0404
vn 0.9745 -0.1801 -0.1338
vn 0.9804 -0.165 -0.1079
vn 0.9742 -0.0424 -0.2216
vn 0.9647 -0.0484 -0.2587
vn 0.9367 0.1691 -0.3066
vn 0.9501 0.1611 -0.2673
vn 0.8798 0.4066 -0.2463
vn 0.8605 0.4264 -0.2787
vn 0.7295 0.654 -0.2001
vn 0.7571 0.6288 -0.1773
vn 0.6239 0.7761 -0.092
vn 0.5869 0.8028 -0.1052
vn 0.0 0.0 0.0

vt 0 0

g Group_001
f 1//1 2//1 4//1 3//1
f 4//2 2//2 6//2 5//2
f 5//3 6//3 8//3 7//3
f 7//4 8//4 10//4 9//4
f 9//5 10//5 12//5 11//5
f 11//6 12//6 14//6 13//6
f 13//7 14//7 16//7 15//7
f 15//8 16//8 18//8 17//8
f 17//9 18//9 20//9 19//9
f 19//10 20//10 22//10 21//10
f 21//11 22//11 24//11 23//11
f 23//12 24//12 26//12 25//12
f 23//13 25//13 28//13 27//13
f 27//14 28//14 30//14 29//14
f 27//15 29//15 32//15 31//15
f 27//16 31//16 34//16 33//16
f 34//17 31//17 36//17 35//17
f 36//18 31//18 38//18 37//18
f 36//19 37//19 40//19 39//19
f 36//20 39//20 42//20 41//20
f 42//21 39//21 44//21 43//21
f 44//22 39//22 46//22 45//22
f 44//23 45//23 48//23 47//23
f 44//24 47//24 50//24 49//24
f 50//25 47//25 52//25 51//25
f 52//26 47//26 54//26 53//26
f 52//27 53//27 56//27 55//27
f 52//28 55//28 58//28 57//28
f 58//29 55//29 60//29 59//29
f 60//30 55//30 62//30 61//30
f 60//31 61//31 64//31 63//31
f 60//32 63//32 66//32 65//32
f 66//33 63//33 68//33 67//33
f 68//34 63//34 70//34 69//34
f 68//35 69//35 72//35 71//35
f 68//36 71//36 74//36 73//36

#Vertex Count: 74