v 0.2818 3.9366 0.6185
v 0.1838 3.9977 1.0138
v 0.2605 3.9214 0.6206
v 0.156 3.9704 1.0176
v 0.0073 4.0168 1.415
v 0.0346 4.06 1.409
v -0.1399 4.0585 1.8131
v -0.1199 4.1193 1.8046
v -0.2453 4.0941 2.2121
v -0.2386 4.1732 2.2009
v -0.2904 4.1266 2.6114
v -0.299 4.2255 2.5975
v -0.2619 4.16 3.0106
v -0.2835 4.282 2.9935
v -0.1586 4.1972 3.4093
v -0.1874 4.346 3.3884
v -0.0274 4.2354 3.8079
v -0.0575 4.4125 3.783
v 0.0729 4.2706 4.2069
v 0.0462 4.4744 4.1783
v 0.0997 4.3003 4.6067
v 0.0797 4.5265 4.5749
v 0.0744 4.3291 5.0065
v 0.0623 4.5726 4.9723
v -0.0 4.3631 5.4057
v -0.0 4.6183 5.3698
v 0.0887 4.095 5.0394
v -0.0 4.1121 5.441
v 0.1008 3.87 5.0711
v -0.0 3.8652 5.4757
v 0.1233 4.0887 4.6364
v 0.1434 3.8914 4.6641
v 0.0744 4.3291 5.0065
v 0.0997 4.3003 4.6067
v 0.0729 4.2706 4.2069
v 0.1044 4.0837 4.2332
v 0.1312 3.9143 4.257
v 0.1434 3.8914 4.6641
v 0.008 4.073 3.8307
v 0.0381 3.9271 3.8512
v 0.0729 4.2706 4.2069
v -0.0274 4.2354 3.8079
v -0.1586 4.1972 3.4093
v -0.1248 4.0581 3.4289
v -0.0961 3.932 3.4466
v 0.0381 3.9271 3.8512
v -0.2364 4.0427 3.0271
v -0.2148 3.9347 3.0423
v -0.1586 4.1972 3.4093
v -0.2619 4.16 3.0106
v -0.2904 4.1266 2.6114
v -0.2802 4.0294 2.6251
v -0.2716 3.9392 2.6378
v -0.2148 3.9347 3.0423
v -0.2532 4.0158 2.223
v -0.26 3.9433 2.2332
v -0.2904 4.1266 2.6114
v -0.2453 4.0941 2.2121
v -0.1399 4.0585 1.8131
v -0.1633 3.9984 1.8216
v -0.1833 3.9431 1.8293
v -0.26 3.9433 2.2332
v -0.0248 3.9744 1.421
v -0.052 3.9354 1.4265
v -0.1399 4.0585 1.8131
v 0.0073 4.0168 1.415
v 0.156 3.9704 1.0176
v 0.1233 3.9436 1.0214
v 0.0955 3.9188 1.0249
v -0.052 3.9354 1.4265
v 0.2353 3.9067 0.6227
v 0.214 3.8926 0.6246
v 0.156 3.9704 1.0176
v 0.2605 3.9214 0.6206


vn 0.6491 0.7131 -0.265
vn 0.7588 0.543 -0.3597
vn 0.8635 0.3409 -0.3716
vn 0.9486 0.1412 -0.2832
vn 0.9913 -0.0287 -0.1283
vn 0.9897 -0.1256 0.069
vn 0.9557 -0.1416 0.2582
vn 0.9376 -0.1238 0.325
vn 0.9598 -0.1067 0.2596
vn 0.9918 -0.0958 0.0849
vn 0.9961 -0.0746 -0.0463
vn 0.9853 -0.047 -0.1644
vn 0.979 -0.0564 -0.1958
vn 0.9721 -0.057 -0.2276
vn 0.9914 -0.0891 -0.0961
vn 0.9931 -0.0943 -0.07
vn 0.9898 -0.1282 0.0619
vn 0.9919 -0.1219 0.0354
vn 0.9638 -0.1422 0.2256
vn 0.9583 -0.1493 0.2437
vn 0.9326 -0.1692 0.3188
vn 0.9367 -0.1587 0.3121
vn 0.9476 -0.1652 0.2733
vn 0.9467 -0.1815 0.2661
vn 0.9839 -0.15 0.0975
vn 0.9834 -0.1324 0.1241
vn 0.9987 -0.0177 -0.0476
vn 0.9958 -0.0254 -0.0881
vn 0.9526 0.1812 -0.2444
vn 0.9636 0.1736 -0.2031
vn 0.8676 0.3913 -0.3068
vn 0.8471 0.411 -0.3368
vn 0.7127 0.6213 -0.3256
vn 0.7415 0.5957 -0.3088
vn 0.6191 0.7485 -0.2377
vn 0.5814 0.7768 -0.2421
vn 0.0 0.0 0.0

vt 0 0

g Group_001
f 1//1 2//1 4//1 3//1
f 4//2 2//2 6//2 5//2
f 5//3 6//3 8//3 7//3
f 7//4 8//4 10//4 9//4
f 9//5 10//5 12//5 11//5
f 11//6 12//6 14//6 13//6
f 13//7 14//7 16//7 15//7
f 15//8 16//8 18//8 17//8
f 17//9 18//9 20//9 19//9
f 19//10 20//10 22//10 21//10
f 21//11 22//11 24//11 23//11
f 23//12 24//12 26//12 25//12
f 23//13 25//13 28//13 27//13
f 27//14 28//14 30//14 29//14
f 27//15 29//15 32//15 31//15
f 27//16 31//16 34//16 33//16
f 34//17 31//17 36//17 35//17
f 36//18 31//18 38//18 37//18
f 36//19 37//19 40//19 39//19
f 36//20 39//20 42//20 41//20
f 42//21 39//21 44//21 43//21
f 44//22 39//22 46//22 45//22
f 44//23 45//23 48//23 47//23
f 44//24 47//24 50//24 49//24
f 50//25 47//25 52//25 51//25
f 52//26 47//26 54//26 53//26
f 52//27 53//27 56//27 55//27
f 52//28 55//28 58//28 57//28
f 58//29 55//29 60//29 59//29
f 60//30 55//30 62//30 61//30
f 60//31 61//31 64//31 63//31
f 60//32 63//32 66//32 65//32
f 66//33 63//33 68//33 67//33
f 68//34 63//34 70//34 69//34
f 68//35 69//35 72//35 71//35
f 68//36 71//36 74//36 73//36

#Vertex Count: 74