v 0.2344 3.9388 0.6182
v 0.1213 4.0009 1.0134
v 0.2166 3.9236 0.6203
v 0.0982 3.9735 1.0172
v -0.0496 4.0207 1.4145
v -0.0269 4.0639 1.4084
v -0.1817 4.0625 1.8126
v -0.165 4.1233 1.804
v -0.2598 4.0974 2.2116
v -0.2541 4.1765 2.2005
v -0.2731 4.129 2.6111
v -0.2803 4.228 2.5972
v -0.2178 4.1624 3.0103
v -0.2359 4.2843 2.9932
v -0.1001 4.2006 3.4089
v -0.124 4.3494 3.388
v 0.0338 4.2403 3.8072
v 0.0087 4.4174 3.7823
v 0.1273 4.2761 4.2061
v 0.105 4.48 4.1775
v 0.1404 4.3051 4.606
v 0.1237 4.5314 4.5742
v 0.099 4.3322 5.0061
v 0.0889 4.5757 4.9719
v -0.0 4.3645 5.4055
v -0.0 4.6197 5.3696
v 0.1108 4.0981 5.039
v -0.0 4.1135 5.4408
v 0.1209 3.8731 5.0706
v -0.0 3.8666 5.4755
v 0.16 4.0935 4.6357
v 0.1768 3.8962 4.6634
v 0.099 4.3322 5.0061
v 0.1404 4.3051 4.606
v 0.1273 4.2761 4.2061
v 0.1536 4.0893 4.2324
v 0.1759 3.9199 4.2562
v 0.1768 3.8962 4.6634
v 0.0633 4.0779 3.8301
v 0.0884 3.9319 3.8506
v 0.1273 4.2761 4.2061
v 0.0338 4.2403 3.8072
v -0.1001 4.2006 3.4089
v -0.0719 4.0615 3.4284
v -0.0479 3.9353 3.4462
v 0.0884 3.9319 3.8506
v -0.1966 4.045 3.0268
v -0.1786 3.937 3.042
v -0.1001 4.2006 3.4089
v -0.2178 4.1624 3.0103
v -0.2731 4.129 2.6111
v -0.2647 4.0319 2.6247
v -0.2575 3.9417 2.6374
v -0.1786 3.937 3.042
v -0.2664 4.0191 2.2226
v -0.272 3.9466 2.2328
v -0.2731 4.129 2.6111
v -0.2598 4.0974 2.2116
v -0.1817 4.0625 1.8126
v -0.2012 4.0024 1.821
v -0.2179 3.9471 1.8288
v -0.272 3.9466 2.2328
v -0.0764 3.9783 1.4205
v -0.0991 3.9393 1.4259
v -0.1817 4.0625 1.8126
v -0.0496 4.0207 1.4145
v 0.0982 3.9735 1.0172
v 0.0709 3.9468 1.021
v 0.0477 3.9219 1.0245
v -0.0991 3.9393 1.4259
v 0.1957 3.9089 0.6224
v 0.1779 3.8948 0.6243
v 0.0982 3.9735 1.0172
v 0.2166 3.9236 0.6203


vn 0.7089 0.6394 -0.2976
vn 0.8034 0.47 -0.3655
vn 0.8939 0.2904 -0.3414
vn 0.9682 0.1244 -0.2173
vn 0.9987 -0.0151 -0.048
vn 0.9865 -0.0941 0.1343
vn 0.9513 -0.107 0.2892
vn 0.9396 -0.095 0.3289
vn 0.9665 -0.0863 0.2417
vn 0.9953 -0.0835 0.0482
vn 0.9937 -0.0691 -0.0887
vn 0.9731 -0.0513 -0.2245
vn 0.9666 -0.0586 -0.2496
vn 0.9596 -0.0592 -0.275
vn 0.9882 -0.0812 -0.13
vn 0.9905 -0.085 -0.1083
vn 0.9935 -0.1104 0.0287
vn 0.9944 -0.1051 0.0064
vn 0.9701 -0.1158 0.2134
vn 0.9658 -0.1221 0.2288
vn 0.9364 -0.1336 0.3244
vn 0.9397 -0.1247 0.3185
vn 0.9449 -0.1269 0.3018
vn 0.9449 -0.1405 0.2958
vn 0.981 -0.1132 0.1576
vn 0.9788 -0.0992 0.1794
vn 0.9998 -0.007 0.0201
vn 0.9998 -0.0122 -0.0138
vn 0.9703 0.1572 -0.1838
vn 0.9776 0.1498 -0.1478
vn 0.8978 0.3352 -0.2855
vn 0.8813 0.3542 -0.3127
vn 0.7639 0.5502 -0.3373
vn 0.7896 0.5224 -0.3219
vn 0.6817 0.6789 -0.2729
vn 0.6455 0.7122 -0.2759
vn 0.0 0.0 0.0

vt 0 0

g Group_001
f 1//1 2//1 4//1 3//1
f 4//2 2//2 6//2 5//2
f 5//3 6//3 8//3 7//3
f 7//4 8//4 10//4 9//4
f 9//5 10//5 12//5 11//5
f 11//6 12//6 14//6 13//6
f 13//7 14//7 16//7 15//7
f 15//8 16//8 18//8 17//8
f 17//9 18//9 20//9 19//9
f 19//10 20//10 22//10 21//10
f 21//11 22//11 24//11 23//11
f 23//12 24//12 26//12 25//12
f 23//13 25//13 28//13 27//13
f 27//14 28//14 30//14 29//14
f 27//15 29//15 32//15 31//15
f 27//16 31//16 34//16 33//16
f 34//17 31//17 36//17 35//17
f 36//18 31//18 38//18 37//18
f 36//19 37//19 40//19 39//19
f 36//20 39//20 42//20 41//20
f 42//21 39//21 44//21 43//21
f 44//22 39//22 46//22 45//22
f 44//23 45//23 48//23 47//23
f 44//24 47//24 50//24 49//24
f 50//25 47//25 52//25 51//25
f 52//26 47//26 54//26 53//26
f 52//27 53//27 56//27 55//27
f 52//28 55//28 58//28 57//28
f 58//29 55//29 60//29 59//29
f 60//30 55//30 62//30 61//30
f 60//31 61//31 64//31 63//31
f 60//32 63//32 66//32 65//32
f 66//33 63//33 68//33 67//33
f 68//34 63//34 70//34 69//34
f 68//35 69//35 72//35 71//35
f 68//36 71//36 74//36 73//36

#Vertex Count: 74