v 0.2107 3.9399 0.618
v 0.0901 4.0024 1.0131
v 0.1947 3.9247 0.6201
v 0.0692 3.9751 1.017
v -0.0781 4.0227 1.4142
v -0.0577 4.0658 1.4082
v -0.2026 4.0645 1.8123
v -0.1876 4.1253 1.8037
v -0.267 4.099 2.2114
v -0.2619 4.1782 2.2002
v -0.2645 4.1303 2.6109
v -0.271 4.2292 2.597
v -0.1958 4.1635 3.0102
v -0.212 4.2855 2.993
v -0.0708 4.2023 3.4086
v -0.0923 4.3511 3.3877
v 0.0645 4.2427 3.8069
v 0.0419 4.4198 3.782
v 0.1545 4.2789 4.2057
v 0.1344 4.4828 4.1771
v 0.1607 4.3075 4.6056
v 0.1457 4.5338 4.5738
v 0.1112 4.3337 5.0059
v 0.1022 4.5772 4.9717
v -0.0 4.3652 5.4054
v -0.0 4.6204 5.3695
v 0.1219 4.0997 5.0388
v -0.0 4.1142 5.4407
v 0.131 3.8747 5.0704
v -0.0 3.8673 5.4754
v 0.1784 4.0959 4.6354
v 0.1935 3.8986 4.6631
v 0.1112 4.3337 5.0059
v 0.1607 4.3075 4.6056
v 0.1545 4.2789 4.2057
v 0.1781 4.0921 4.232
v 0.1982 3.9226 4.2558
v 0.1935 3.8986 4.6631
v 0.091 4.0803 3.8297
v 0.1136 3.9343 3.8502
v 0.1545 4.2789 4.2057
v 0.0645 4.2427 3.8069
v -0.0708 4.2023 3.4086
v -0.0454 4.0632 3.4282
v -0.0238 3.937 3.4459
v 0.1136 3.9343 3.8502
v -0.1767 4.0462 3.0266
v -0.1605 3.9381 3.0418
v -0.0708 4.2023 3.4086
v -0.1958 4.1635 3.0102
v -0.2645 4.1303 2.6109
v -0.2569 4.0331 2.6245
v -0.2504 3.9429 2.6372
v -0.1605 3.9381 3.0418
v -0.2729 4.0208 2.2223
v -0.278 3.9483 2.2325
v -0.2645 4.1303 2.6109
v -0.267 4.099 2.2114
v -0.2026 4.0645 1.8123
v -0.2202 4.0044 1.8207
v -0.2351 3.9491 1.8285
v -0.278 3.9483 2.2325
v -0.1022 3.9802 1.4202
v -0.1226 3.9412 1.4257
v -0.2026 4.0645 1.8123
v -0.0781 4.0227 1.4142
v 0.0692 3.9751 1.017
v 0.0447 3.9483 1.0207
v 0.0239 3.9235 1.0242
v -0.1226 3.9412 1.4257
v 0.1759 3.9099 0.6222
v 0.1599 3.8959 0.6242
v 0.0692 3.9751 1.017
v 0.1947 3.9247 0.6201


vn 0.7383 0.5966 -0.3145
vn 0.8239 0.4317 -0.3673
vn 0.9082 0.2638 -0.3248
vn 0.9765 0.1143 -0.1828
vn 0.9999 -0.0089 -0.0074
vn 0.983 -0.0776 0.1666
vn 0.9484 -0.0892 0.3044
vn 0.9402 -0.0807 0.3308
vn 0.9696 -0.076 0.2324
vn 0.9966 -0.0772 0.0296
vn 0.9918 -0.0661 -0.1098
vn 0.9659 -0.0531 -0.2535
vn 0.9594 -0.0599 -0.2756
vn 0.9526 -0.0602 -0.2981
vn 0.9862 -0.0771 -0.1467
vn 0.9885 -0.0809 -0.1274
vn 0.9948 -0.1014 0.0121
vn 0.9953 -0.0966 -0.0078
vn 0.973 -0.1026 0.2068
vn 0.9693 -0.108 0.2208
vn 0.938 -0.1155 0.3269
vn 0.9407 -0.1076 0.3216
vn 0.9427 -0.1078 0.3157
vn 0.943 -0.1201 0.3105
vn 0.9777 -0.0955 0.1872
vn 0.975 -0.0826 0.2064
vn 0.9985 -0.001 0.054
vn 0.9997 -0.0064 0.0234
vn 0.9777 0.1449 -0.1522
vn 0.9833 0.1371 -0.1193
vn 0.9127 0.303 -0.274
vn 0.8979 0.3229 -0.2993
vn 0.791 0.5068 -0.3427
vn 0.814 0.4794 -0.3279
vn 0.7143 0.6362 -0.2916
vn 0.6823 0.669 -0.2949
vn 0.0 0.0 0.0

vt 0 0

g Group_001
f 1//1 2//1 4//1 3//1
f 4//2 2//2 6//2 5//2
f 5//3 6//3 8//3 7//3
f 7//4 8//4 10//4 9//4
f 9//5 10//5 12//5 11//5
f 11//6 12//6 14//6 13//6
f 13//7 14//7 16//7 15//7
f 15//8 16//8 18//8 17//8
f 17//9 18//9 20//9 19//9
f 19//10 20//10 22//10 21//10
f 21//11 22//11 24//11 23//11
f 23//12 24//12 26//12 25//12
f 23//13 25//13 28//13 27//13
f 27//14 28//14 30//14 29//14
f 27//15 29//15 32//15 31//15
f 27//16 31//16 34//16 33//16
f 34//17 31//17 36//17 35//17
f 36//18 31//18 38//18 37//18
f 36//19 37//19 40//19 39//19
f 36//20 39//20 42//20 41//20
f 42//21 39//21 44//21 43//21
f 44//22 39//22 46//22 45//22
f 44//23 45//23 48//23 47//23
f 44//24 47//24 50//24 49//24
f 50//25 47//25 52//25 51//25
f 52//26 47//26 54//26 53//26
f 52//27 53//27 56//27 55//27
f 52//28 55//28 58//28 57//28
f 58//29 55//29 60//29 59//29
f 60//30 55//30 62//30 61//30
f 60//31 61//31 64//31 63//31
f 60//32 63//32 66//32 65//32
f 66//33 63//33 68//33 67//33
f 68//34 63//34 70//34 69//34
f 68//35 69//35 72//35 71//35
f 68//36 71//36 74//36 73//36

#Vertex Count: 74