v 0.116 3.9442 0.6174
v -0.0348 4.0087 1.0123
v 0.1071 3.9291 0.6195
v -0.0464 3.9814 1.0161
v -0.192 4.0304 1.4131
v -0.1806 4.0736 1.4071
v -0.2862 4.0725 1.8112
v -0.2779 4.1334 1.8026
v -0.2959 4.1057 2.2104
v -0.2931 4.1848 2.1993
v -0.23 4.1352 2.6102
v -0.2336 4.2342 2.5963
v -0.1077 4.1682 3.0095
v -0.1167 4.2901 2.9924
v 0.0464 4.209 3.4077
v 0.0344 4.3578 3.3868
v 0.187 4.2524 3.8055
v 0.1744 4.4295 3.7806
v 0.2632 4.2901 4.2042
v 0.2521 4.4939 4.1755
v 0.2421 4.3171 4.6043
v 0.2337 4.5434 4.5725
v 0.1604 4.3399 5.005
v 0.1553 4.5834 4.9708
v -0.0 4.368 5.405
v -0.0 4.6232 5.3691
v 0.1663 4.1059 5.0379
v -0.0 4.117 5.4403
v 0.1714 3.8809 5.0695
v -0.0 3.8701 5.475
v 0.2519 4.1055 4.634
v 0.2603 3.9082 4.6618
v 0.1604 4.3399 5.005
v 0.2421 4.3171 4.6043
v 0.2632 4.2901 4.2042
v 0.2764 4.1033 4.2304
v 0.2875 3.9338 4.2542
v 0.2603 3.9082 4.6618
v 0.2017 4.09 3.8284
v 0.2143 3.944 3.8489
v 0.2632 4.2901 4.2042
v 0.187 4.2524 3.8055
v 0.0464 4.209 3.4077
v 0.0605 4.0699 3.4272
v 0.0725 3.9438 3.445
v 0.2143 3.944 3.8489
v -0.0971 4.0508 3.026
v -0.0881 3.9428 3.0412
v 0.0464 4.209 3.4077
v -0.1077 4.1682 3.0095
v -0.23 4.1352 2.6102
v -0.2258 4.0381 2.6239
v -0.2222 3.9479 2.6365
v -0.0881 3.9428 3.0412
v -0.2992 4.0275 2.2214
v -0.302 3.9549 2.2316
v -0.23 4.1352 2.6102
v -0.2959 4.1057 2.2104
v -0.2862 4.0725 1.8112
v -0.296 4.0125 1.8196
v -0.3043 3.9572 1.8274
v -0.302 3.9549 2.2316
v -0.2054 3.988 1.4191
v -0.2168 3.949 1.4246
v -0.2862 4.0725 1.8112
v -0.192 4.0304 1.4131
v -0.0464 3.9814 1.0161
v -0.0601 3.9546 1.0199
v -0.0716 3.9298 1.0234
v -0.2168 3.949 1.4246
v 0.0966 3.9143 0.6216
v 0.0877 3.9003 0.6236
v -0.0464 3.9814 1.0161
v 0.1071 3.9291 0.6195


vn 0.8522 0.3591 -0.3806
vn 0.8987 0.2424 -0.3656
vn 0.9572 0.1461 -0.2497
vn 0.9965 0.0735 -0.039
vn 0.988 0.0171 0.1538
vn 0.9571 -0.014 0.2894
vn 0.932 -0.0215 0.3618
vn 0.9412 -0.0237 0.3371
vn 0.9803 -0.0336 0.1944
vn 0.9977 -0.0515 -0.0445
vn 0.9798 -0.0551 -0.192
vn 0.93 -0.0605 -0.3626
vn 0.9254 -0.0638 -0.3737
vn 0.9208 -0.064 -0.3848
vn 0.9754 -0.061 -0.2117
vn 0.9775 -0.0627 -0.2014
vn 0.9964 -0.0651 -0.0542
vn 0.9959 -0.0621 -0.0653
vn 0.9824 -0.0485 0.1802
vn 0.9808 -0.0519 0.1881
vn 0.9411 -0.0427 0.3353
vn 0.9424 -0.0384 0.3322
vn 0.9293 -0.0315 0.3681
vn 0.93 -0.0383 0.3655
vn 0.9536 -0.0236 0.3
vn 0.9506 -0.017 0.3098
vn 0.9823 0.0213 0.1863
vn 0.9852 0.0189 0.1701
vn 0.9956 0.0913 -0.0215
vn 0.9963 0.0861 -0.0025
vn 0.9607 0.1697 -0.2199
vn 0.9543 0.183 -0.2361
vn 0.8866 0.297 -0.3547
vn 0.8982 0.2739 -0.344
vn 0.8434 0.3913 -0.3682
vn 0.8245 0.4269 -0.3715
vn 0.0 0.0 0.0

vt 0 0

g Group_001
f 1//1 2//1 4//1 3//1
f 4//2 2//2 6//2 5//2
f 5//3 6//3 8//3 7//3
f 7//4 8//4 10//4 9//4
f 9//5 10//5 12//5 11//5
f 11//6 12//6 14//6 13//6
f 13//7 14//7 16//7 15//7
f 15//8 16//8 18//8 17//8
f 17//9 18//9 20//9 19//9
f 19//10 20//10 22//10 21//10
f 21//11 22//11 24//11 23//11
f 23//12 24//12 26//12 25//12
f 23//13 25//13 28//13 27//13
f 27//14 28//14 30//14 29//14
f 27//15 29//15 32//15 31//15
f 27//16 31//16 34//16 33//16
f 34//17 31//17 36//17 35//17
f 36//18 31//18 38//18 37//18
f 36//19 37//19 40//19 39//19
f 36//20 39//20 42//20 41//20
f 42//21 39//21 44//21 43//21
f 44//22 39//22 46//22 45//22
f 44//23 45//23 48//23 47//23
f 44//24 47//24 50//24 49//24
f 50//25 47//25 52//25 51//25
f 52//26 47//26 54//26 53//26
f 52//27 53//27 56//27 55//27
f 52//28 55//28 58//28 57//28
f 58//29 55//29 60//29 59//29
f 60//30 55//30 62//30 61//30
f 60//31 61//31 64//31 63//31
f 60//32 63//32 66//32 65//32
f 66//33 63//33 68//33 67//33
f 68//34 63//34 70//34 69//34
f 68//35 69//35 72//35 71//35
f 68//36 71//36 74//36 73//36

#Vertex Count: 74