v -0.2049 3.9443 0.6174
v -0.2561 4.0045 1.0128
v -0.1891 3.9291 0.6195
v -0.2349 3.9772 1.0167
v -0.221 4.0215 1.4144
v -0.2426 4.0647 1.4083
v -0.1515 4.0609 1.8128
v -0.168 4.1218 1.8042
v -0.0362 4.0952 2.2119
v -0.0427 4.1743 2.2008
v 0.092 4.1278 2.6112
v 0.0973 4.2268 2.5973
v 0.1942 4.1632 3.0102
v 0.2093 4.2851 2.9931
v 0.2406 4.2039 3.4084
v 0.2605 4.3527 3.3875
v 0.2376 4.2457 3.8065
v 0.2579 4.4228 3.7816
v 0.2004 4.2825 4.2052
v 0.2181 4.4863 4.1766
v 0.1445 4.3105 4.6052
v 0.1578 4.5368 4.5734
v 0.0847 4.3357 5.0056
v 0.0933 4.5792 4.9714
v -0.0 4.3661 5.4053
v -0.0 4.6213 5.3694
v 0.0747 4.1016 5.0385
v -0.0 4.1151 5.4405
v 0.0662 3.8767 5.0701
v -0.0 3.8682 5.4753
v 0.1288 4.0989 4.635
v 0.1155 3.9017 4.6627
v 0.0847 4.3357 5.0056
v 0.1445 4.3105 4.6052
v 0.2004 4.2825 4.2052
v 0.1797 4.0957 4.2315
v 0.1621 3.9262 4.2553
v 0.1155 3.9017 4.6627
v 0.2137 4.0833 3.8293
v 0.1933 3.9373 3.8498
v 0.2004 4.2825 4.2052
v 0.2376 4.2457 3.8065
v 0.2406 4.2039 3.4084
v 0.2171 4.0648 3.428
v 0.1971 3.9386 3.4457
v 0.1933 3.9373 3.8498
v 0.1763 4.0458 3.0267
v 0.1612 3.9378 3.0419
v 0.2406 4.2039 3.4084
v 0.1942 4.1632 3.0102
v 0.092 4.1278 2.6112
v 0.0857 4.0307 2.6249
v 0.0804 3.9405 2.6376
v 0.1612 3.9378 3.0419
v -0.0285 4.017 2.2229
v -0.022 3.9445 2.2331
v 0.092 4.1278 2.6112
v -0.0362 4.0952 2.2119
v -0.1515 4.0609 1.8128
v -0.1321 4.0009 1.8212
v -0.1155 3.9456 1.829
v -0.022 3.9445 2.2331
v -0.1957 3.9791 1.4203
v -0.1742 3.9401 1.4258
v -0.1515 4.0609 1.8128
v -0.221 4.0215 1.4144
v -0.2349 3.9772 1.0167
v -0.21 3.9504 1.0204
v -0.1888 3.9256 1.0239
v -0.1742 3.9401 1.4258
v -0.1705 3.9144 0.6216
v -0.1547 3.9003 0.6236
v -0.2349 3.9772 1.0167
v -0.1891 3.9291 0.6195


vn 0.754 -0.6568 -0.0025
vn 0.8568 -0.5065 0.0963
vn 0.928 -0.3105 0.2061
vn 0.9475 -0.1136 0.2989
vn 0.9482 0.0379 0.3155
vn 0.9618 0.1232 0.2447
vn 0.9847 0.1416 0.1019
vn 0.9926 0.1191 -0.0238
vn 0.9907 0.0839 -0.1067
vn 0.9876 0.0503 -0.149
vn 0.9875 0.0241 -0.1558
vn 0.9762 -0.0136 -0.2166
vn 0.9809 -0.0071 -0.1946
vn 0.9851 -0.0064 -0.1719
vn 0.9915 0.0336 -0.1255
vn 0.9892 0.0371 -0.1415
vn 0.9884 0.0714 -0.1341
vn 0.9908 0.067 -0.1174
vn 0.9909 0.1081 -0.0802
vn 0.9891 0.113 -0.0949
vn 0.9881 0.1526 -0.0194
vn 0.9893 0.1452 -0.0119
vn 0.983 0.1599 0.0897
vn 0.9807 0.1715 0.0942
vn 0.9646 0.1403 0.2234
vn 0.9704 0.1286 0.2044
vn 0.9654 0.0293 0.2589
vn 0.9572 0.0329 0.2877
vn 0.9515 -0.1487 0.2694
vn 0.9612 -0.1403 0.2377
vn 0.9236 -0.3517 0.1524
vn 0.9105 -0.3723 0.1801
vn 0.8121 -0.5778 0.0816
vn 0.8334 -0.5494 0.0596
vn 0.7235 -0.6901 -0.0137
vn 0.6904 -0.7234 0.0024
vn 0.0 0.0 0.0

vt 0 0

g Group_001
f 1//1 2//1 4//1 3//1
f 4//2 2//2 6//2 5//2
f 5//3 6//3 8//3 7//3
f 7//4 8//4 10//4 9//4
f 9//5 10//5 12//5 11//5
f 11//6 12//6 14//6 13//6
f 13//7 14//7 16//7 15//7
f 15//8 16//8 18//8 17//8
f 17//9 18//9 20//9 19//9
f 19//10 20//10 22//10 21//10
f 21//11 22//11 24//11 23//11
f 23//12 24//12 26//12 25//12
f 23//13 25//13 28//13 27//13
f 27//14 28//14 30//14 29//14
f 27//15 29//15 32//15 31//15
f 27//16 31//16 34//16 33//16
f 34//17 31//17 36//17 35//17
f 36//18 31//18 38//18 37//18
f 36//19 37//19 40//19 39//19
f 36//20 39//20 42//20 41//20
f 42//21 39//21 44//21 43//21
f 44//22 39//22 46//22 45//22
f 44//23 45//23 48//23 47//23
f 44//24 47//24 50//24 49//24
f 50//25 47//25 52//25 51//25
f 52//26 47//26 54//26 53//26
f 52//27 53//27 56//27 55//27
f 52//28 55//28 58//28 57//28
f 58//29 55//29 60//29 59//29
f 60//30 55//30 62//30 61//30
f 60//31 61//31 64//31 63//31
f 60//32 63//32 66//32 65//32
f 66//33 63//33 68//33 67//33
f 68//34 63//34 70//34 69//34
f 68//35 69//35 72//35 71//35
f 68//36 71//36 74//36 73//36

#Vertex Count: 74